<?xml version="1.0" encoding="UTF-8"?>
<svg version="1.1" xmlns="http://www.w3.org/2000/svg" width="500" height="500">
<path d="M0 0 C1.73453644 -0.00486792 3.46906722 -0.01231822 5.20358276 -0.02212524 C9.87073626 -0.04077653 14.53703873 -0.0222411 19.20412517 0.00453901 C24.10552998 0.02732833 29.00689781 0.01894136 33.90834045 0.01504517 C42.12832399 0.0132854 50.34797567 0.03532069 58.56787109 0.07226562 C68.06119824 0.11469059 77.55404148 0.1215962 87.04744428 0.10914171 C96.20451595 0.09774557 105.36141787 0.1090497 114.51846504 0.1314888 C118.4062776 0.14075908 122.29398598 0.14253808 126.18180656 0.13831711 C130.75639874 0.13454409 135.33049957 0.15081337 139.90497971 0.1824379 C141.58070276 0.19090455 143.25647577 0.19263746 144.93221092 0.1870575 C147.22417655 0.18058432 149.51468725 0.19884451 151.8065033 0.22323608 C153.08712615 0.22734182 154.367749 0.23144756 155.68717861 0.23567772 C160.85167296 0.96855749 164.64123236 2.95420066 168.21118164 6.86962891 C170.15457789 12.12823053 170.25705788 17.54373922 167.96118164 22.68212891 C167.40430664 23.36275391 166.84743164 24.04337891 166.27368164 24.74462891 C165.84055664 25.30150391 165.40743164 25.85837891 164.96118164 26.43212891 C160.59760763 29.8260198 155.52175278 29.99202506 150.19441223 29.97840881 C149.16084226 29.97991374 149.16084226 29.97991374 148.10639209 29.98144907 C145.81023134 29.9823975 143.51438088 29.96908793 141.21826172 29.95581055 C139.56709383 29.95360813 137.91592454 29.9523036 136.26475525 29.951828 C132.71582431 29.94889932 129.16698586 29.93966828 125.61808205 29.92552376 C120.00895424 29.90323602 114.3998606 29.89516432 108.79069519 29.88902283 C99.92274274 29.87765033 91.05484116 29.8569278 82.18691701 29.83212513 C66.29445305 29.78775676 50.40197101 29.75463127 34.50946158 29.73188108 C28.9305476 29.72346308 23.35168364 29.709428 17.77279437 29.69090855 C14.30809553 29.68028401 10.84339718 29.67368856 7.3786869 29.66810799 C5.76899237 29.66463064 4.15930054 29.65940917 2.54961777 29.65233994 C0.35705995 29.64292073 -1.83542455 29.63961622 -4.02799988 29.63783264 C-5.25633136 29.63431321 -6.48466284 29.63079378 -7.75021648 29.6271677 C-10.78202523 29.6084378 -10.78202523 29.6084378 -13.72631836 30.74462891 C-14.75777207 32.05378169 -15.76174002 33.38545033 -16.72631836 34.74462891 C-17.05631836 34.74462891 -17.38631836 34.74462891 -17.72631836 34.74462891 C-18.18641118 38.70142718 -18.05906208 40.29088747 -15.66381836 43.55712891 C-9.65535872 48.03151374 -1.7220645 46.79543485 5.46118164 46.68212891 C29.2194514 46.55888393 29.2194514 46.55888393 39.27368164 54.74462891 C39.27368164 55.40462891 39.27368164 56.06462891 39.27368164 56.74462891 C39.85118164 56.97150391 40.42868164 57.19837891 41.02368164 57.43212891 C47.47153197 61.19337493 50.19824338 68.93971022 52.27368164 75.74462891 C52.92594118 80.28396869 52.96601769 84.73524055 52.93310547 89.31591797 C52.94358917 90.61489517 52.95407288 91.91387238 52.96487427 93.25221252 C52.9927505 96.77429618 52.99059781 100.29576527 52.98258042 103.81792545 C52.97943232 107.51353277 53.0045565 111.20895208 53.02653503 114.90447998 C53.06382752 121.88460247 53.0761142 128.86453021 53.07915944 135.84474254 C53.08386644 143.79901326 53.11684206 151.75309084 53.15205729 159.70727587 C53.22379795 176.05304879 53.26047742 192.39870156 53.27368164 208.74462891 C57.62778363 211.03605241 60.35627189 210.97879128 65.27368164 210.74462891 C66.26368164 210.41462891 67.25368164 210.08462891 68.27368164 209.74462891 C69.59428085 206.48364936 69.39578593 203.09168338 69.39152527 199.61613464 C69.39264313 198.358629 69.39376099 197.10112335 69.39491272 195.80551147 C69.3912481 194.41436756 69.38753871 193.02322377 69.38378906 191.63208008 C69.38354687 190.16503397 69.38382432 188.6979877 69.38458252 187.23094177 C69.3856882 184.07271491 69.38425727 180.91450259 69.38121605 177.75627708 C69.37758201 172.7594691 69.38672559 167.76273678 69.39900208 162.76594543 C69.401024 161.92223159 69.40304593 161.07851774 69.40512913 160.2092368 C69.40929771 158.48403605 69.41350047 156.75883537 69.41773665 155.03363478 C69.44587298 143.4023427 69.46600907 131.77121507 69.44873047 120.13989258 C69.43716711 112.29163149 69.44677774 104.44371044 69.48078805 96.5955103 C69.49793159 92.44409207 69.50424972 88.29328747 69.48467064 84.14186668 C69.46641302 80.23533807 69.47609881 76.32986577 69.50692749 72.42342567 C69.51328171 70.99280727 69.50946777 69.56210057 69.49453163 68.13154602 C69.37727548 55.99677628 69.37727548 55.99677628 73.0514679 51.43989563 C76.50874471 47.98277984 80.44141585 46.77636793 85.27368164 46.74462891 C89.6279182 47.48753183 93.11995546 48.59090272 96.27368164 51.74462891 C98.2030183 55.60330223 98.4010401 58.64363591 98.40739441 62.90472412 C98.41379189 64.83940552 98.41379189 64.83940552 98.4203186 66.81317139 C98.41996907 68.24572757 98.41950753 69.67828373 98.41894531 71.11083984 C98.421937 72.61714766 98.42533956 74.12345471 98.42912292 75.62976074 C98.43796786 79.72496791 98.4403013 83.82015419 98.44093871 87.91536999 C98.44188793 91.33467462 98.44556653 94.75397438 98.44911081 98.17327714 C98.45725786 106.24296201 98.45969488 114.31263571 98.45898438 122.38232422 C98.45838406 130.70231599 98.46892615 139.02224282 98.48472804 147.34221816 C98.49781386 154.48713032 98.50316781 161.6320213 98.50252897 168.77694535 C98.50227421 173.04333416 98.50511282 177.30966532 98.51570702 181.57604218 C98.52540508 185.59137529 98.52545548 189.60659585 98.51819038 193.62193298 C98.51714654 195.0928743 98.51949551 196.56382267 98.52555084 198.03475189 C98.53330212 200.04868664 98.52741251 202.06265992 98.5209198 204.07659912 C98.52146457 205.20189907 98.52200933 206.32719902 98.52257061 207.48659897 C98.10601072 212.93949062 96.55725909 217.71050854 93.83618164 222.43212891 C93.4249707 223.15787109 93.01375977 223.88361328 92.59008789 224.63134766 C91.24971554 226.78310267 89.91262637 228.80848887 88.27368164 230.74462891 C87.61368164 230.74462891 86.95368164 230.74462891 86.27368164 230.74462891 C86.27368164 231.40462891 86.27368164 232.06462891 86.27368164 232.74462891 C74.11981937 240.07293348 64.19839666 243.14595515 50.03930664 240.03369141 C39.63042923 236.66949622 32.59244654 230.3589331 27.58618164 220.74462891 C24.98444755 215.58949015 24.15142339 211.07368408 24.13565063 205.31762695 C24.1301973 204.24096771 24.12474396 203.16430847 24.11912537 202.05502319 C24.11808304 200.88396027 24.11704071 199.71289734 24.1159668 198.50634766 C24.11088608 197.26519196 24.10580536 196.02403625 24.10057068 194.74526978 C24.08987473 192.05140776 24.08087185 189.35759687 24.07445145 186.66372681 C24.06374316 182.4024853 24.04349238 178.14132237 24.02133179 173.88012695 C23.95949742 161.76501045 23.90536842 149.64989979 23.87231445 137.53466797 C23.85396693 130.83901444 23.82503433 124.1434938 23.78430974 117.44793797 C23.76325136 113.90710185 23.74778406 110.36643305 23.74550247 106.82553101 C23.74295547 102.87785123 23.71749193 98.93050025 23.69018555 94.98291016 C23.69319168 93.81184723 23.69619781 92.6407843 23.69929504 91.43423462 C23.68820206 90.35757538 23.67710907 89.28091614 23.66567993 88.17163086 C23.66071471 86.77241142 23.66071471 86.77241142 23.65564919 85.34492493 C23.19441134 82.20498555 22.11791852 80.30652482 20.27368164 77.74462891 C17.31754173 76.26655895 14.30466737 76.5882518 11.06274414 76.56884766 C9.57444936 76.54561021 8.08616813 76.52149141 6.59790039 76.49658203 C4.26366635 76.46178992 1.92991804 76.43231101 -0.40454102 76.41870117 C-11.96360315 76.33820631 -23.65904142 75.95304322 -32.97631836 68.11962891 C-33.70334961 67.52923828 -34.43038086 66.93884766 -35.17944336 66.33056641 C-36.72631836 64.74462891 -36.72631836 64.74462891 -36.72631836 62.74462891 C-37.38631836 62.74462891 -38.04631836 62.74462891 -38.72631836 62.74462891 C-46.54328243 53.27655691 -47.64875692 42.64538561 -46.72631836 30.74462891 C-45.49280012 23.41019612 -41.43796016 16.4188642 -36.72631836 10.74462891 C-34.56616211 10.11962891 -34.56616211 10.11962891 -32.72631836 9.74462891 C-32.39631836 8.75462891 -32.06631836 7.76462891 -31.72631836 6.74462891 C-21.55055703 0.41009936 -11.63899544 -0.11579732 0 0 Z " fill="#33CD9A" transform="translate(188.726318359375,129.25537109375)"/>
<path d="M0 0 C1.73453644 -0.00486792 3.46906722 -0.01231822 5.20358276 -0.02212524 C9.87073626 -0.04077653 14.53703873 -0.0222411 19.20412517 0.00453901 C24.10552998 0.02732833 29.00689781 0.01894136 33.90834045 0.01504517 C42.12832399 0.0132854 50.34797567 0.03532069 58.56787109 0.07226562 C68.06119824 0.11469059 77.55404148 0.1215962 87.04744428 0.10914171 C96.20451595 0.09774557 105.36141787 0.1090497 114.51846504 0.1314888 C118.4062776 0.14075908 122.29398598 0.14253808 126.18180656 0.13831711 C130.75639874 0.13454409 135.33049957 0.15081337 139.90497971 0.1824379 C141.58070276 0.19090455 143.25647577 0.19263746 144.93221092 0.1870575 C147.22417655 0.18058432 149.51468725 0.19884451 151.8065033 0.22323608 C153.08712615 0.22734182 154.367749 0.23144756 155.68717861 0.23567772 C160.85167296 0.96855749 164.64123236 2.95420066 168.21118164 6.86962891 C170.15457789 12.12823053 170.25705788 17.54373922 167.96118164 22.68212891 C167.40430664 23.36275391 166.84743164 24.04337891 166.27368164 24.74462891 C165.84055664 25.30150391 165.40743164 25.85837891 164.96118164 26.43212891 C160.59760763 29.8260198 155.52175278 29.99202506 150.19441223 29.97840881 C149.16084226 29.97991374 149.16084226 29.97991374 148.10639209 29.98144907 C145.81023134 29.9823975 143.51438088 29.96908793 141.21826172 29.95581055 C139.56709383 29.95360813 137.91592454 29.9523036 136.26475525 29.951828 C132.71582431 29.94889932 129.16698586 29.93966828 125.61808205 29.92552376 C120.00895424 29.90323602 114.3998606 29.89516432 108.79069519 29.88902283 C99.92274274 29.87765033 91.05484116 29.8569278 82.18691701 29.83212513 C66.29445305 29.78775676 50.40197101 29.75463127 34.50946158 29.73188108 C28.9305476 29.72346308 23.35168364 29.709428 17.77279437 29.69090855 C14.30809553 29.68028401 10.84339718 29.67368856 7.3786869 29.66810799 C5.76899237 29.66463064 4.15930054 29.65940917 2.54961777 29.65233994 C0.35705995 29.64292073 -1.83542455 29.63961622 -4.02799988 29.63783264 C-5.25633136 29.63431321 -6.48466284 29.63079378 -7.75021648 29.6271677 C-10.78202523 29.6084378 -10.78202523 29.6084378 -13.72631836 30.74462891 C-14.75777207 32.05378169 -15.76174002 33.38545033 -16.72631836 34.74462891 C-17.05631836 34.74462891 -17.38631836 34.74462891 -17.72631836 34.74462891 C-18.18641118 38.70142718 -18.05906208 40.29088747 -15.66381836 43.55712891 C-9.65535872 48.03151374 -1.7220645 46.79543485 5.46118164 46.68212891 C29.2194514 46.55888393 29.2194514 46.55888393 39.27368164 54.74462891 C39.27368164 55.40462891 39.27368164 56.06462891 39.27368164 56.74462891 C39.85118164 56.97150391 40.42868164 57.19837891 41.02368164 57.43212891 C47.47153197 61.19337493 50.19824338 68.93971022 52.27368164 75.74462891 C52.92594118 80.28396869 52.96601769 84.73524055 52.93310547 89.31591797 C52.94358917 90.61489517 52.95407288 91.91387238 52.96487427 93.25221252 C52.9927505 96.77429618 52.99059781 100.29576527 52.98258042 103.81792545 C52.97943232 107.51353277 53.0045565 111.20895208 53.02653503 114.90447998 C53.06382752 121.88460247 53.0761142 128.86453021 53.07915944 135.84474254 C53.08386644 143.79901326 53.11684206 151.75309084 53.15205729 159.70727587 C53.22379795 176.05304879 53.26047742 192.39870156 53.27368164 208.74462891 C56.17241488 210.2735397 58.04102927 210.98391165 61.33618164 210.86962891 C63.6478924 210.79624126 65.9608063 210.74462891 68.27368164 210.74462891 C65.9588374 212.8814082 64.54684638 213.70306036 61.39868164 214.18212891 C57.52359083 213.63961619 55.35451104 212.0919275 52.27368164 209.74462891 C52.27368164 210.73462891 52.27368164 211.72462891 52.27368164 212.74462891 C51.61368164 212.74462891 50.95368164 212.74462891 50.27368164 212.74462891 C50.27368164 207.79462891 50.27368164 202.84462891 50.27368164 197.74462891 C49.61368164 197.74462891 48.95368164 197.74462891 48.27368164 197.74462891 C48.02038449 190.27236305 48.02038449 190.27236305 49.26773071 187.67356873 C50.65706264 183.62837179 50.56873128 179.89215363 50.56420898 175.64331055 C50.57092621 174.73538254 50.57764343 173.82745453 50.58456421 172.89201355 C50.60353356 169.89621482 50.60746766 166.90064018 50.60961914 163.90478516 C50.61604702 161.81880095 50.62277537 159.73281764 50.62979126 157.64683533 C50.6417608 153.27649851 50.64547233 148.90624072 50.64428711 144.53588867 C50.64408376 138.93924697 50.67140399 133.34311214 50.70583153 127.74659061 C50.72807965 123.43913957 50.73212531 119.13181101 50.73106766 114.8243084 C50.73342606 112.76105436 50.74226302 110.69779708 50.75773239 108.63459969 C50.77735297 105.74781987 50.77156998 102.86213975 50.75952148 99.9753418 C50.7707605 99.12579926 50.78199951 98.27625671 50.7935791 97.40097046 C50.73671514 92.03278688 49.80076564 89.02714871 46.27368164 84.74462891 C44.42108617 82.92188029 44.42108617 82.92188029 42.52368164 81.49462891 C40.66430664 80.04150391 40.66430664 80.04150391 39.27368164 78.74462891 C39.27368164 78.08462891 39.27368164 77.42462891 39.27368164 76.74462891 C38.18055664 76.76525391 37.08743164 76.78587891 35.96118164 76.80712891 C32.27368164 76.74462891 32.27368164 76.74462891 29.27368164 75.74462891 C27.60759178 75.70078444 25.9398761 75.70495761 24.27368164 75.74462891 C21.15981195 75.81876866 19.26693383 75.74237964 16.27368164 74.74462891 C14.49373549 74.61808739 12.70990875 74.54304607 10.92602539 74.49853516 C9.31812134 74.45188721 9.31812134 74.45188721 7.67773438 74.40429688 C6.53377197 74.37223145 5.38980957 74.34016602 4.21118164 74.30712891 C-27.93678197 73.14053154 -27.93678197 73.14053154 -35.39038086 66.40087891 C-36.72631836 64.74462891 -36.72631836 64.74462891 -36.72631836 62.74462891 C-37.38631836 62.74462891 -38.04631836 62.74462891 -38.72631836 62.74462891 C-46.54328243 53.27655691 -47.64875692 42.64538561 -46.72631836 30.74462891 C-45.49280012 23.41019612 -41.43796016 16.4188642 -36.72631836 10.74462891 C-34.56616211 10.11962891 -34.56616211 10.11962891 -32.72631836 9.74462891 C-32.39631836 8.75462891 -32.06631836 7.76462891 -31.72631836 6.74462891 C-21.55055703 0.41009936 -11.63899544 -0.11579732 0 0 Z " fill="#207DDF" transform="translate(188.726318359375,129.25537109375)"/>
<path d="M0 0 C6.64409958 -0.21432579 12.53205867 0.48766299 19 2 C19 2.66 19 3.32 19 4 C19.58394531 4.2475 20.16789062 4.495 20.76953125 4.75 C23.32931647 6.18455564 24.79523301 7.76704286 26.6875 10 C27.28949219 10.70125 27.89148438 11.4025 28.51171875 12.125 C31.65702608 16.08759191 31.14781051 19.92149345 31.14526367 24.77661133 C31.14862228 25.68570755 31.1519809 26.59480377 31.15544128 27.53144836 C31.16496986 30.54832309 31.16689548 33.5651424 31.16796875 36.58203125 C31.17118045 38.67469811 31.17454446 40.76736475 31.17805481 42.86003113 C31.18405117 47.25247722 31.18589423 51.64490362 31.18530273 56.03735352 C31.18520119 61.66653216 31.1988437 67.29558445 31.21607494 72.92473316 C31.22719368 77.24928874 31.22922196 81.57381378 31.22869301 85.89838219 C31.22987369 87.97361371 31.23430038 90.04884601 31.24202538 92.12406349 C31.25182083 95.02786723 31.2489487 97.93139695 31.24291992 100.83520508 C31.24853943 101.69305603 31.25415894 102.55090698 31.25994873 103.43475342 C31.23704193 107.77590752 30.94363461 111.02484658 29 115 C28.56111075 117.20254027 28.56111075 117.20254027 28.375 119.3125 C28.25125 120.529375 28.1275 121.74625 28 123 C28.66 123 29.32 123 30 123 C30 127.95 30 132.9 30 138 C30.66 138 31.32 138 32 138 C32 137.01 32 136.02 32 135 C34 136 36 137 38 138 C41.87214182 138.43023798 43.52496371 138.31669086 46.8125 136.125 C50.59711544 132.44851643 50.29793175 128.89745958 50.5625 123.875 C50.62727539 122.74384766 50.62727539 122.74384766 50.69335938 121.58984375 C50.7994832 119.72678112 50.90025001 117.86341476 51 116 C51.99 116.495 51.99 116.495 53 117 C52.95875 117.94875 52.9175 118.8975 52.875 119.875 C52.65026182 123.10244856 52.65026182 123.10244856 55 125 C54.443125 125.8353125 54.443125 125.8353125 53.875 126.6875 C52.68814184 129.037112 52.68814184 129.037112 54 131.5 C55 134 55 134 54.5 136.125 C51.4167139 139.97910762 47.34805508 141.0845568 42.625 141.6875 C41.42875 141.790625 40.2325 141.89375 39 142 C39.185625 142.78375 39.37125 143.5675 39.5625 144.375 C40 147 40 147 39 149 C39.56203125 148.82597656 40.1240625 148.65195312 40.703125 148.47265625 C43.24556755 147.94946654 45.18452337 148.09795162 47.75 148.4375 C48.54921875 148.53933594 49.3484375 148.64117187 50.171875 148.74609375 C50.77515625 148.82988281 51.3784375 148.91367187 52 149 C52.33 149.99 52.66 150.98 53 152 C53.99 152.33 54.98 152.66 56 153 C56.99 153.99 56.99 153.99 58 155 C60.58354218 155.16687448 60.58354218 155.16687448 63 155 C63.185625 153.63875 63.185625 153.63875 63.375 152.25 C63.92109677 149.41029677 64.57263803 147.47409409 66 145 C66 145.66 66 146.32 66 147 C67.98 147.99 67.98 147.99 70 149 C67.44651653 153.16123232 65.31554148 156.61267918 61 159 C55.15541753 159.88801408 49.62406825 159.77911822 44.625 156.40234375 C39.89977275 152.3245635 35.93095716 147.51709584 33 142 C32.89153477 145.088128 32.89153477 145.088128 33.75 148.375 C34 152 34 152 32.375 154.875 C29.67542083 157.29041295 28.60912128 158 25 158 C22.53115917 157.18219648 20.34718797 156.15058234 18 155 C19.485 153.02 19.485 153.02 21 151 C19.68 151 18.36 151 17 151 C17 150.01 17 149.02 17 148 C16.01 148.33 15.02 148.66 14 149 C12 147 12 147 11.875 143.375 C11.91625 142.26125 11.9575 141.1475 12 140 C11.01 140.33 10.02 140.66 9 141 C5.77751109 133.21231847 5.7001504 126.36247208 6 118 C6.04646433 115.74284881 6.04646433 115.74284881 5.50886536 112.51101685 C4.88445733 107.60917282 4.85530406 102.75952367 4.8581543 97.82373047 C4.85467987 96.83733582 4.85120544 95.85094116 4.84762573 94.83465576 C4.84030797 92.70563182 4.83494154 90.57660045 4.83133507 88.44756699 C4.82413143 85.07632093 4.80843861 81.70521721 4.78999329 78.33401489 C4.73768649 68.7534573 4.68950841 59.17298272 4.67407227 49.59228516 C4.66399554 43.72145973 4.63468903 37.85100068 4.59275246 31.98031998 C4.58044418 29.74685561 4.57532088 27.51333954 4.57755089 25.27984238 C4.57990198 22.1586558 4.55775471 19.03852445 4.5300293 15.91748047 C4.53663071 14.99784515 4.54323212 14.07820984 4.55003357 13.13070679 C4.46739008 7.46368649 3.6331784 4.39659092 0 0 Z " fill="#24C096" transform="translate(209,204)"/>
<path d="M0 0 C0.66 0.33 1.32 0.66 2 1 C1.3503125 1.61875 1.3503125 1.61875 0.6875 2.25 C-2.29671348 5.3447399 -4.43161053 7.62573329 -4.5 12.0625 C-3.85633369 17.13137215 -2.83507375 20.74738937 0 25 C0 25.99 0 26.98 0 28 C0.5775 28.2475 1.155 28.495 1.75 28.75 C4 30 4 30 5.6875 31.9375 C9.01264403 34.903169 12.7664518 35.8059223 17 37 C17.33 36.67 17.66 36.34 18 36 C17.34 34.35 16.68 32.7 16 31 C17.33463542 32.26953125 18.66927083 33.5390625 20.00390625 34.80859375 C25.75750277 38.24273648 33.70907088 37.03968841 40.1875 36.9375 C63.94576976 36.81425503 63.94576976 36.81425503 74 45 C74 45.66 74 46.32 74 47 C74.5775 47.226875 75.155 47.45375 75.75 47.6875 C82.19785033 51.44874603 84.92456174 59.19508131 87 66 C87.65225954 70.53933978 87.69233605 74.99061164 87.65942383 79.57128906 C87.66990753 80.87026627 87.68039124 82.16924347 87.69119263 83.50758362 C87.71906886 87.02966727 87.71691617 90.55113636 87.70889878 94.07329655 C87.70575068 97.76890386 87.73087486 101.46432317 87.75285339 105.15985107 C87.79014588 112.13997357 87.80243256 119.11990131 87.8054778 126.10011363 C87.8101848 134.05438436 87.84316042 142.00846193 87.87837565 149.96264696 C87.95011631 166.30841989 87.98679578 182.65407266 88 199 C90.89873324 200.52891079 92.76734763 201.23928274 96.0625 201.125 C98.37421076 201.05161236 100.68712466 201 103 201 C100.68515576 203.1367793 99.27316474 203.95843145 96.125 204.4375 C92.24990919 203.89498729 90.0808294 202.34729859 87 200 C87 200.99 87 201.98 87 203 C86.34 203 85.68 203 85 203 C85 198.05 85 193.1 85 188 C84.34 188 83.68 188 83 188 C82.74670285 180.52773414 82.74670285 180.52773414 83.99404907 177.92893982 C85.383381 173.88374288 85.29504963 170.14752473 85.29052734 165.89868164 C85.29724457 164.99075363 85.30396179 164.08282562 85.31088257 163.14738464 C85.32985192 160.15158591 85.33378602 157.15601127 85.3359375 154.16015625 C85.34236538 152.07417204 85.34909373 149.98818874 85.35610962 147.90220642 C85.36807916 143.5318696 85.37179069 139.16161182 85.37060547 134.79125977 C85.37040212 129.19461806 85.39772235 123.59848323 85.43214989 118.00196171 C85.45439801 113.69451067 85.45844367 109.38718211 85.45738602 105.07967949 C85.45974442 103.01642546 85.46858138 100.95316817 85.48405075 98.88997078 C85.50367133 96.00319096 85.49788834 93.11751084 85.48583984 90.23071289 C85.49707886 89.38117035 85.50831787 88.53162781 85.51989746 87.65634155 C85.4630335 82.28815798 84.527084 79.2825198 81 75 C79.14740453 73.17725139 79.14740453 73.17725139 77.25 71.75 C75.390625 70.296875 75.390625 70.296875 74 69 C74 68.34 74 67.68 74 67 C72.906875 67.020625 71.81375 67.04125 70.6875 67.0625 C67 67 67 67 64 66 C62.33391013 65.95615553 60.66619446 65.9603287 59 66 C55.88613031 66.07413975 53.99325219 65.99775073 51 65 C49.22005385 64.87345848 47.43622711 64.79841716 45.65234375 64.75390625 C44.0444397 64.7072583 44.0444397 64.7072583 42.40405273 64.65966797 C41.26009033 64.62760254 40.11612793 64.59553711 38.9375 64.5625 C6.78953638 63.39590263 6.78953638 63.39590263 -0.6640625 56.65625 C-2 55 -2 55 -2 53 C-2.66 53 -3.32 53 -4 53 C-11.81696407 43.53192801 -12.92243857 32.9007567 -12 21 C-10.73797088 13.49604308 -6.47393211 7.0371132 -2 1 C-1.34 0.67 -0.68 0.34 0 0 Z " fill="#1C8EF2" transform="translate(154,139)"/>
<path d="M0 0 C0.33 0 0.66 0 1 0 C1.04673986 19.95820082 1.08199859 39.91639052 1.10362434 59.87463474 C1.11393285 69.14178358 1.12798508 78.40889839 1.15087891 87.67602539 C1.17082577 95.75411897 1.18371953 103.83218791 1.18817699 111.91030544 C1.19078217 116.18680716 1.19689666 120.46323838 1.21146011 124.73971748 C1.22506449 128.76731249 1.22921687 132.79480814 1.22621536 136.82242393 C1.22676425 138.2982042 1.23072467 139.77398788 1.23841095 141.24974823 C1.2484164 143.27040178 1.24476481 145.291109 1.24050903 147.31178284 C1.24235262 148.44097924 1.24419621 149.57017565 1.24609566 150.73359013 C0.83492783 156.19099093 -0.71450584 160.96255375 -3.4375 165.6875 C-3.84871094 166.41324219 -4.25992188 167.13898438 -4.68359375 167.88671875 C-6.0239661 170.03847376 -7.36105527 172.06385996 -9 174 C-9.66 174 -10.32 174 -11 174 C-11 174.66 -11 175.32 -11 176 C-23.15386227 183.32830457 -33.07528499 186.40132625 -47.234375 183.2890625 C-57.64325241 179.92486732 -64.6812351 173.61430419 -69.6875 164 C-72.28923409 158.84486124 -73.12225825 154.32905517 -73.13803101 148.57299805 C-73.14348434 147.49633881 -73.14893768 146.41967957 -73.15455627 145.31039429 C-73.1555986 144.13933136 -73.15664093 142.96826843 -73.15771484 141.76171875 C-73.16279556 140.52056305 -73.16787628 139.27940735 -73.17311096 138.00064087 C-73.18380691 135.30677885 -73.19280979 132.61296796 -73.19923019 129.9190979 C-73.20993848 125.6578564 -73.23018926 121.39669347 -73.25234985 117.13549805 C-73.31418422 105.02038154 -73.36831322 92.90527088 -73.40136719 80.79003906 C-73.41971471 74.09438553 -73.44864731 67.3988649 -73.4893719 60.70330906 C-73.51043029 57.16247294 -73.52589758 53.62180414 -73.52817917 50.0809021 C-73.53072617 46.13322232 -73.55618971 42.18587134 -73.58349609 38.23828125 C-73.58048996 37.06721832 -73.57748383 35.8961554 -73.5743866 34.68960571 C-73.58547958 33.61294647 -73.59657257 32.53628723 -73.60800171 31.42700195 C-73.61131186 30.494189 -73.614622 29.56137604 -73.61803246 28.60029602 C-74.0792703 25.46035664 -75.15576312 23.56189592 -77 21 C-79.98046809 19.50976596 -83.046106 19.82292403 -86.31640625 19.7890625 C-87.81836971 19.76096365 -89.32032267 19.73229904 -90.82226562 19.703125 C-93.18301761 19.66210666 -95.54358004 19.625213 -97.90454102 19.59863281 C-106.37721745 19.49503521 -114.07857195 19.39360148 -122 16 C-118.82297595 15.01293671 -116.37297574 15.02492111 -113.08203125 15.4140625 C-108.86237302 15.85292378 -104.69071509 16.10981573 -100.44921875 16.2109375 C-98.78342773 16.25347656 -98.78342773 16.25347656 -97.08398438 16.296875 C-94.80030521 16.34940356 -92.51641899 16.39353605 -90.23242188 16.4296875 C-79.5790166 16.72820674 -79.5790166 16.72820674 -75 20 C-72.38918209 22.91794889 -71.62352936 24.75765634 -71.60127258 28.65704346 C-71.58873444 29.58809906 -71.57619629 30.51915466 -71.5632782 31.47842407 C-71.56471329 32.49262421 -71.56614838 33.50682434 -71.56762695 34.55175781 C-71.55233948 36.16197311 -71.55233948 36.16197311 -71.53674316 37.80471802 C-71.50654006 41.3542396 -71.49733581 44.90349163 -71.48828125 48.453125 C-71.47144004 50.91364443 -71.45329056 53.37415523 -71.43388367 55.83465576 C-71.38631726 62.3119029 -71.35655069 68.78911504 -71.33044434 75.26647949 C-71.30067243 81.87563998 -71.25413052 88.48467981 -71.20898438 95.09375 C-71.12287562 108.06243447 -71.05499452 121.03114819 -71 134 C-70.34 134.33 -69.68 134.66 -69 135 C-69.33 135.33 -69.66 135.66 -70 136 C-70.07325168 138.86267567 -70.09238205 141.700719 -70.0625 144.5625 C-70.05798828 145.36880859 -70.05347656 146.17511719 -70.04882812 147.00585938 C-70.03700518 149.00393756 -70.01906914 151.00197783 -70 153 C-69.34 153.33 -68.68 153.66 -68 154 C-68 155.65 -68 157.3 -68 159 C-66.02 158.01 -66.02 158.01 -64 157 C-64 159.64 -64 162.28 -64 165 C-62.68 165.33 -61.36 165.66 -60 166 C-60 166.99 -60 167.98 -60 169 C-58.35 168.67 -56.7 168.34 -55 168 C-55 168.99 -55 169.98 -55 171 C-55.99 171.66 -56.98 172.32 -58 173 C-54.00560824 174.57917814 -51.09224656 175.70510273 -47 174 C-45.66096786 171.65245602 -45.66096786 171.65245602 -45 169 C-44.67 168.01 -44.34 167.02 -44 166 C-44.88319294 162.84979639 -44.88319294 162.84979639 -46 160 C-45.01 159.67 -44.02 159.34 -43 159 C-42.5978125 159.85271484 -42.5978125 159.85271484 -42.1875 160.72265625 C-38.79021948 167.4166399 -34.37416051 173.5419465 -27 176 C-19.18840305 176.86504023 -19.18840305 176.86504023 -12.3125 173.6875 C-9.67387904 171.21190517 -9.67387904 171.21190517 -10 168 C-9.54625 167.566875 -9.0925 167.13375 -8.625 166.6875 C-6.4243481 164.40220764 -5.86929801 162.00910851 -5 159 C-4.34 159 -3.68 159 -3 159 C-3.495 154.545 -3.495 154.545 -4 150 C-3.01 150 -2.02 150 -1 150 C-1.66 147.36 -2.32 144.72 -3 142 C-2.34 142 -1.68 142 -1 142 C-1.165 141.05125 -1.33 140.1025 -1.5 139.125 C-2.18541792 134.4236123 -2.08583441 129.73996714 -2 125 C-2.66 125 -3.32 125 -4 125 C-3.125 120.125 -3.125 120.125 -2 119 C-1.7575049 116.63796658 -1.58408067 114.30514436 -1.45727539 111.93579102 C-1.41545419 111.18324571 -1.37363298 110.4307004 -1.33054447 109.65535069 C-0.79579712 99.12016572 -0.76538996 88.57361792 -0.68359375 78.02734375 C-0.66296982 75.76477222 -0.64197216 73.50220407 -0.62062073 71.23963928 C-0.5659607 65.34291354 -0.51630907 59.44615635 -0.46777344 53.54937744 C-0.41714354 47.50880197 -0.36167616 41.46827102 -0.30664062 35.42773438 C-0.19974707 23.61852779 -0.09815535 11.80928222 0 0 Z " fill="#B5F569" transform="translate(286,186)"/>
<path d="M0 0 C1.08061962 -0.00551503 1.08061962 -0.00551503 2.18306994 -0.01114148 C4.60347877 -0.02217788 7.02384467 -0.02602207 9.4442749 -0.02983093 C11.17718136 -0.03609561 12.91008647 -0.04274241 14.64299011 -0.04974365 C20.3394375 -0.07078549 26.03588517 -0.08114594 31.73236084 -0.09111023 C33.69324508 -0.0951577 35.65412917 -0.09927462 37.61501312 -0.10346031 C46.82701205 -0.12251201 56.03900296 -0.13674326 65.25101781 -0.14507228 C75.88532696 -0.15484597 86.51942804 -0.18116903 97.15366387 -0.22157317 C105.37287582 -0.25173015 113.59202811 -0.26654075 121.81129432 -0.26985329 C126.72050439 -0.27220421 131.62949215 -0.28117012 136.53864288 -0.30631447 C141.15813925 -0.32959294 145.77726691 -0.33382934 150.39680672 -0.32355309 C152.09029173 -0.32305756 153.78379489 -0.32938286 155.47722435 -0.34310913 C157.79376894 -0.36083231 160.10899088 -0.35372101 162.42553711 -0.34057617 C163.72044697 -0.34296453 165.01535683 -0.34535288 166.34950638 -0.34781361 C171.54078566 0.36256528 175.31770432 2.33855581 178.90423584 6.27217102 C180.84763209 11.53077265 180.95011208 16.94628133 178.65423584 22.08467102 C178.09736084 22.76529602 177.54048584 23.44592102 176.96673584 24.14717102 C176.53361084 24.70404602 176.10048584 25.26092102 175.65423584 25.83467102 C171.29066183 29.22856192 166.21480698 29.39456717 160.88746643 29.38095093 C159.85389646 29.38245585 159.85389646 29.38245585 158.79944628 29.38399118 C156.50328554 29.38493961 154.20743508 29.37163004 151.91131592 29.35835266 C150.26014803 29.35615024 148.60897874 29.35484571 146.95780945 29.35437012 C143.40887851 29.35144143 139.86004006 29.3422104 136.31113625 29.32806587 C130.70200843 29.30577814 125.0929148 29.29770643 119.48374939 29.29156494 C110.61579694 29.28019245 101.74789536 29.25946991 92.87997121 29.23466724 C76.98750725 29.19029887 61.09502521 29.15717338 45.20251578 29.1344232 C39.6236018 29.1260052 34.04473784 29.11197011 28.46584857 29.09345067 C25.00114973 29.08282612 21.53645138 29.07623067 18.0717411 29.0706501 C16.46204657 29.06717276 14.85235474 29.06195129 13.24267197 29.05488205 C11.05011415 29.04546285 8.85762965 29.04215833 6.66505432 29.04037476 C5.43672284 29.03685533 4.20839136 29.0333359 2.94283772 29.02970982 C-0.70242445 29.17358153 -2.43045675 29.54436361 -5.03326416 32.14717102 C-5.03326416 31.15717102 -5.03326416 30.16717102 -5.03326416 29.14717102 C-1.5365471 26.81602632 -0.09699905 26.88284263 4.03948975 26.8441925 C5.29154205 26.82755051 6.54359436 26.81090851 7.83358765 26.79376221 C9.20349079 26.78519472 10.57339436 26.77669735 11.94329834 26.76826477 C13.35235738 26.75207866 14.76140532 26.7348975 16.17044067 26.71676636 C19.88560798 26.6710505 23.60079077 26.63628406 27.31610107 26.60456848 C33.24085838 26.5527642 39.16544817 26.48693836 45.09000778 26.41635323 C47.14872588 26.39375406 49.20742404 26.3773239 51.26620483 26.3616333 C53.17265274 26.34139854 53.17265274 26.34139854 55.11761475 26.320755 C56.22553375 26.31124313 57.33345276 26.30173126 58.47494507 26.29193115 C61.14725462 26.18114448 63.69945055 25.96367578 66.34745789 25.64242554 C70.82489509 25.11641277 75.22009372 25.01873798 79.7243042 25.04951477 C80.96039177 25.05170517 80.96039177 25.05170517 82.22145081 25.05393982 C83.99414111 25.05771769 85.76682775 25.06380394 87.5395031 25.07200623 C90.35319144 25.08488436 93.16683206 25.0913146 95.98054504 25.09614563 C102.96650667 25.10944622 109.95242253 25.13365674 116.93835449 25.157547 C122.8524863 25.17735424 128.76660102 25.1929621 134.68075752 25.20310974 C137.4380568 25.20954036 140.19528434 25.22204685 142.95256042 25.2348175 C157.38199817 25.87046148 157.38199817 25.87046148 170.96673584 22.14717102 C171.62673584 22.14717102 172.28673584 22.14717102 172.96673584 22.14717102 C173.29673584 21.48717102 173.62673584 20.82717102 173.96673584 20.14717102 C174.62673584 20.14717102 175.28673584 20.14717102 175.96673584 20.14717102 C176.16760027 16.43117911 176.11867954 15.37508657 173.96673584 12.14717102 C174.34173584 9.45967102 174.34173584 9.45967102 174.96673584 7.14717102 C170.51173584 6.15717102 170.51173584 6.15717102 165.96673584 5.14717102 C165.96673584 4.48717102 165.96673584 3.82717102 165.96673584 3.14717102 C163.49173584 4.13717102 163.49173584 4.13717102 160.96673584 5.14717102 C160.96673584 4.48717102 160.96673584 3.82717102 160.96673584 3.14717102 C160.27450928 3.18270081 159.58228271 3.21823059 158.86907959 3.25483704 C155.56874871 3.4176251 152.26784552 3.56355633 148.96673584 3.70967102 C147.88005615 3.76574524 146.79337646 3.82181946 145.67376709 3.8795929 C138.15866293 4.19802951 130.77264699 4.03655631 123.26556396 3.6608429 C109.15405463 3.01954698 95.05885732 3.02027517 80.93548584 3.04951477 C78.2345177 3.05195264 75.53354959 3.05285576 72.83258057 3.05380249 C66.52224586 3.05687082 60.21192916 3.06502136 53.90160227 3.07515198 C46.69925057 3.08645563 39.49689786 3.09185891 32.29453945 3.09684741 C17.51859585 3.10720954 2.74266616 3.12471862 -12.03326416 3.14717102 C-8.4411551 -0.44493804 -4.84656027 0.01601334 0 0 Z " fill="#66BFE2" transform="translate(178.03326416015625,129.8528289794922)"/>
<path d="M0 0 C0.68377213 -0.00014603 1.36754425 -0.00029205 2.07203674 -0.0004425 C4.30660298 0.00024784 6.54108329 0.00799863 8.77563477 0.01586914 C10.33504694 0.01773645 11.89445971 0.01915887 13.45387268 0.02015686 C17.53910977 0.02395743 21.62431077 0.03376648 25.70953369 0.04486084 C29.88585929 0.05512808 34.06219078 0.05966582 38.23852539 0.06469727 C46.41888041 0.07539116 54.59920621 0.09243774 62.77954102 0.11352539 C62.77954102 1.10352539 62.77954102 2.09352539 62.77954102 3.11352539 C61.95969727 3.10192383 61.13985352 3.09032227 60.29516602 3.07836914 C58.67868164 3.06483398 58.67868164 3.06483398 57.02954102 3.05102539 C55.96219727 3.03942383 54.89485352 3.02782227 53.79516602 3.01586914 C51.245856 3.09842452 49.20020511 3.36734981 46.77954102 4.11352539 C46.77954102 3.45352539 46.77954102 2.79352539 46.77954102 2.11352539 C42.92543895 2.05505494 39.07145237 2.01977134 35.21704102 1.98852539 C34.13100586 1.97176758 33.0449707 1.95500977 31.92602539 1.93774414 C26.1347466 1.9025388 21.23819459 2.12428865 15.77954102 4.11352539 C15.28454102 2.62852539 15.28454102 2.62852539 14.77954102 1.11352539 C12.98747554 1.25437335 11.19589185 1.4013624 9.40454102 1.55102539 C7.90793945 1.6728418 7.90793945 1.6728418 6.38110352 1.79711914 C3.80026488 1.96318165 3.80026488 1.96318165 1.77954102 3.11352539 C-0.84545898 2.17602539 -0.84545898 2.17602539 -3.22045898 1.11352539 C-3.55045898 2.10352539 -3.88045898 3.09352539 -4.22045898 4.11352539 C-4.55045898 3.45352539 -4.88045898 2.79352539 -5.22045898 2.11352539 C-5.88045898 2.11352539 -6.54045898 2.11352539 -7.22045898 2.11352539 C-7.55045898 3.10352539 -7.88045898 4.09352539 -8.22045898 5.11352539 C-10.20045898 5.44352539 -12.18045898 5.77352539 -14.22045898 6.11352539 C-14.22045898 6.77352539 -14.22045898 7.43352539 -14.22045898 8.11352539 C-12.24045898 8.11352539 -10.26045898 8.11352539 -8.22045898 8.11352539 C-8.88045898 9.43352539 -9.54045898 10.75352539 -10.22045898 12.11352539 C-12.86045898 12.11352539 -15.50045898 12.11352539 -18.22045898 12.11352539 C-18.55045898 12.77352539 -18.88045898 13.43352539 -19.22045898 14.11352539 C-20.2077764 15.45627708 -21.20640641 16.79084812 -22.22045898 18.11352539 C-22.55045898 16.79352539 -22.88045898 15.47352539 -23.22045898 14.11352539 C-22.89045898 16.09352539 -22.56045898 18.07352539 -22.22045898 20.11352539 C-23.21045898 20.11352539 -24.20045898 20.11352539 -25.22045898 20.11352539 C-25.22045898 22.75352539 -25.22045898 25.39352539 -25.22045898 28.11352539 C-23.90045898 28.11352539 -22.58045898 28.11352539 -21.22045898 28.11352539 C-21.22045898 27.12352539 -21.22045898 26.13352539 -21.22045898 25.11352539 C-20.56045898 25.11352539 -19.90045898 25.11352539 -19.22045898 25.11352539 C-19.22045898 26.10352539 -19.22045898 27.09352539 -19.22045898 28.11352539 C-17.14592339 29.33713219 -17.14592339 29.33713219 -14.22045898 29.11352539 C-13.56045898 27.79352539 -12.90045898 26.47352539 -12.22045898 25.11352539 C-11.49858398 25.13415039 -10.77670898 25.15477539 -10.03295898 25.17602539 C-7.3012076 25.1153198 -4.87789807 24.72094004 -2.22045898 24.11352539 C-2.22045898 23.12352539 -2.22045898 22.13352539 -2.22045898 21.11352539 C-1.66358398 21.19731445 -1.10670898 21.28110352 -0.53295898 21.36743164 C4.83745209 22.08409123 9.43337533 21.9883525 14.77954102 21.11352539 C14.77954102 21.77352539 14.77954102 22.43352539 14.77954102 23.11352539 C17.74954102 23.11352539 20.71954102 23.11352539 23.77954102 23.11352539 C23.77954102 23.77352539 23.77954102 24.43352539 23.77954102 25.11352539 C23.03792725 25.13334473 22.29631348 25.15316406 21.53222656 25.17358398 C18.17680267 25.26875467 14.82200816 25.37846633 11.46704102 25.48852539 C10.29979492 25.51946289 9.13254883 25.55040039 7.92993164 25.58227539 C6.81166992 25.62094727 5.6934082 25.65961914 4.54125977 25.69946289 C2.99378052 25.74659424 2.99378052 25.74659424 1.41503906 25.79467773 C-1.44889135 25.94027168 -1.44889135 25.94027168 -4.22045898 28.11352539 C-4.94428365 30.17277678 -4.94428365 30.17277678 -5.22045898 32.11352539 C-5.55045898 32.11352539 -5.88045898 32.11352539 -6.22045898 32.11352539 C-6.49475524 37.50801832 -6.58101545 40.63278344 -3.22045898 45.11352539 C-12.67819164 43.36209342 -19.69746207 39.87433203 -25.53295898 31.98852539 C-27.93931048 27.39732755 -28.44734406 22.24112807 -28.22045898 17.11352539 C-26.92269426 13.06239497 -25.25200434 11.05033495 -22.22045898 8.11352539 C-21.93170898 7.43290039 -21.64295898 6.75227539 -21.34545898 6.05102539 C-19.60381932 3.05153485 -17.39346617 2.37075465 -14.22045898 1.11352539 C-9.44033162 0.26939893 -4.84886147 -0.00876828 0 0 Z " fill="#242173" transform="translate(177.220458984375,131.886474609375)"/>
<path d="M0 0 C1.32 0.33 2.64 0.66 4 1 C4 1.66 4 2.32 4 3 C4.5775 3.226875 5.155 3.45375 5.75 3.6875 C12.19785033 7.44874603 14.92456174 15.19508131 17 22 C17.65225954 26.53933978 17.69233605 30.99061164 17.65942383 35.57128906 C17.66990753 36.87026627 17.68039124 38.16924347 17.69119263 39.50758362 C17.71906886 43.02966727 17.71691617 46.55113636 17.70889878 50.07329655 C17.70575068 53.76890386 17.73087486 57.46432317 17.75285339 61.15985107 C17.79014588 68.13997357 17.80243256 75.11990131 17.8054778 82.10011363 C17.8101848 90.05438436 17.84316042 98.00846193 17.87837565 105.96264696 C17.95011631 122.30841989 17.98679578 138.65407266 18 155 C20.89873324 156.52891079 22.76734763 157.23928274 26.0625 157.125 C28.37421076 157.05161236 30.68712466 157 33 157 C30.68515576 159.1367793 29.27316474 159.95843145 26.125 160.4375 C22.24990919 159.89498729 20.0808294 158.34729859 17 156 C17 156.99 17 157.98 17 159 C16.34 159 15.68 159 15 159 C15 154.05 15 149.1 15 144 C14.34 144 13.68 144 13 144 C12.74670285 136.52773414 12.74670285 136.52773414 13.99404907 133.92893982 C15.383381 129.88374288 15.29504963 126.14752473 15.29052734 121.89868164 C15.29724457 120.99075363 15.30396179 120.08282562 15.31088257 119.14738464 C15.32985192 116.15158591 15.33378602 113.15601127 15.3359375 110.16015625 C15.34236538 108.07417204 15.34909373 105.98818874 15.35610962 103.90220642 C15.36807916 99.5318696 15.37179069 95.16161182 15.37060547 90.79125977 C15.37040212 85.19461806 15.39772235 79.59848323 15.43214989 74.00196171 C15.45439801 69.69451067 15.45844367 65.38718211 15.45738602 61.07967949 C15.45974442 59.01642546 15.46858138 56.95316817 15.48405075 54.88997078 C15.50367133 52.00319096 15.49788834 49.11751084 15.48583984 46.23071289 C15.50269836 44.95639908 15.50269836 44.95639908 15.51989746 43.65634155 C15.4630335 38.28815798 14.527084 35.2825198 11 31 C9.14740453 29.17725139 9.14740453 29.17725139 7.25 27.75 C5.390625 26.296875 5.390625 26.296875 4 25 C4 24.34 4 23.68 4 23 C2.453125 23.061875 2.453125 23.061875 0.875 23.125 C-2.86829627 23.00424851 -5.53734547 22.35127982 -9 21 C-8.505 19.515 -8.505 19.515 -8 18 C-6.02 17.67 -4.04 17.34 -2 17 C-2 18.32 -2 19.64 -2 21 C-1.401875 20.34 -0.80375 19.68 -0.1875 19 C2 17 2 17 5 17 C5.2165625 15.576875 5.2165625 15.576875 5.4375 14.125 C6 11 6 11 7 9 C6.01 9 5.02 9 4 9 C3.67 10.65 3.34 12.3 3 14 C2.49506997 11.98027989 1.99049357 9.96078598 1.5 7.9375 C1.07018312 6.2719596 0.54394553 4.63183658 0 3 C0 2.01 0 1.02 0 0 Z " fill="#04BFDF" transform="translate(224,183)"/>
<path d="M0 0 C3.29271724 2.65913031 4.837646 4.11019037 5.60800171 8.33226013 C5.59991486 9.599897 5.591828 10.86753387 5.58349609 12.17358398 C5.58583252 12.87668701 5.58816895 13.57979004 5.59057617 14.30419922 C5.59218565 16.61893019 5.55820771 18.9316468 5.5234375 21.24609375 C5.51664299 22.86124453 5.51192386 24.47640525 5.50918579 26.09156799 C5.49578813 30.33929571 5.45152241 34.58618493 5.40161133 38.83361816 C5.36625557 42.29313047 5.35313787 45.7525575 5.34119225 49.21221828 C5.3263634 53.3485623 5.30118354 57.48481848 5.2734375 61.62109375 C5.26607134 62.79822843 5.26607134 62.79822843 5.25855637 63.9991436 C5.24218176 66.23186473 5.21877329 68.4643928 5.19287109 70.69702148 C5.18001068 71.96545395 5.16715027 73.23388641 5.15390015 74.54075623 C5.00991855 77.7770589 4.60967808 80.82186853 4 84 C1.44218478 80.16327717 1.74693544 77.05464013 1.8046875 72.61328125 C1.8075174 71.79627243 1.81034729 70.97926361 1.81326294 70.13749695 C1.82445459 67.52901541 1.8495571 64.9208777 1.875 62.3125 C1.88503112 60.54362475 1.89415674 58.77474412 1.90234375 57.00585938 C1.92439058 52.67044051 1.9589133 48.33527855 2 44 C2.66 44 3.32 44 4 44 C3.814375 43.34 3.62875 42.68 3.4375 42 C2.86972692 38.10669886 3.40718293 34.88624521 4 31 C3.34 30.67 2.68 30.34 2 30 C2.66 24.72 3.32 19.44 4 14 C3.34 14 2.68 14 2 14 C0.62689293 12.70766393 -0.71034824 11.37562854 -2 10 C-1.67 9.01 -1.34 8.02 -1 7 C-1.33 6.34 -1.66 5.68 -2 5 C-2.99 5 -3.98 5 -5 5 C-5 4.01 -5 3.02 -5 2 C-5.33 2.66 -5.66 3.32 -6 4 C-6.99 4 -7.98 4 -9 4 C-9.66 5.32 -10.32 6.64 -11 8 C-10.01 8 -9.02 8 -8 8 C-8 8.66 -8 9.32 -8 10 C-8.94875 10.12375 -9.8975 10.2475 -10.875 10.375 C-14.08667191 10.71687177 -14.08667191 10.71687177 -16 13 C-16.99 13 -17.98 13 -19 13 C-19 14.65 -19 16.3 -19 18 C-19.33 18 -19.66 18 -20 18 C-20.00358253 19.07813571 -20.00358253 19.07813571 -20.00723743 20.17805195 C-20.06633213 37.65405602 -20.14184649 55.12991148 -20.23571491 72.60576344 C-20.28071131 81.05690579 -20.32011701 89.50800565 -20.34643555 97.95922852 C-20.36938461 105.32393939 -20.40274774 112.68851619 -20.44870156 120.05312079 C-20.47267574 123.95389443 -20.49137691 127.85453495 -20.49761391 131.75538063 C-20.50364595 135.42523431 -20.52357681 139.09474717 -20.55427551 142.76447487 C-20.5672946 144.7569953 -20.56548067 146.74959524 -20.5632782 148.74215698 C-20.57581635 149.92426254 -20.58835449 151.1063681 -20.60127258 152.32429504 C-20.60588155 153.35393781 -20.61049051 154.38358057 -20.61523914 155.44442463 C-21.0515457 158.3423657 -21.72217066 159.23146753 -24 161 C-23.83743052 160.46640019 -23.67486105 159.93280039 -23.50736523 159.38303089 C-22.89182553 156.49191805 -22.87853056 153.82918835 -22.88215637 150.87150574 C-22.88103851 149.61400009 -22.87992065 148.35649445 -22.87876892 147.06088257 C-22.88243354 145.66973865 -22.88614293 144.27859486 -22.88989258 142.88745117 C-22.89013477 141.42040507 -22.88985732 139.9533588 -22.88909912 138.48631287 C-22.88799344 135.328086 -22.88942437 132.16987368 -22.89246559 129.01164818 C-22.89609963 124.0148402 -22.88695605 119.01810788 -22.87467957 114.02131653 C-22.87265764 113.17760268 -22.87063571 112.33388883 -22.86855251 111.46460789 C-22.86438393 109.73940714 -22.86018117 108.01420647 -22.85594499 106.28900588 C-22.82780867 94.65771379 -22.80767257 83.02658617 -22.82495117 71.39526367 C-22.83651453 63.54700259 -22.82690391 55.69908153 -22.79289359 47.8508814 C-22.77575005 43.69946317 -22.76943192 39.54865856 -22.789011 35.39723778 C-22.80726862 31.49070916 -22.79758283 27.58523686 -22.76675415 23.67879677 C-22.76039993 22.24817836 -22.76421387 20.81747166 -22.77915001 19.38691711 C-22.89645149 7.24745554 -22.89645149 7.24745554 -19.1245575 2.69136047 C-13.50604346 -2.73819633 -7.05501533 -2.85107592 0 0 Z " fill="#0CBFD6" transform="translate(281,178)"/>
<path d="M0 0 C0.33 0 0.66 0 1 0 C1.04673986 19.95820082 1.08199859 39.91639052 1.10362434 59.87463474 C1.11393285 69.14178358 1.12798508 78.40889839 1.15087891 87.67602539 C1.17082577 95.75411897 1.18371953 103.83218791 1.18817699 111.91030544 C1.19078217 116.18680716 1.19689666 120.46323838 1.21146011 124.73971748 C1.22506449 128.76731249 1.22921687 132.79480814 1.22621536 136.82242393 C1.22676425 138.2982042 1.23072467 139.77398788 1.23841095 141.24974823 C1.2484164 143.27040178 1.24476481 145.291109 1.24050903 147.31178284 C1.24235262 148.44097924 1.24419621 149.57017565 1.24609566 150.73359013 C0.83492783 156.19099093 -0.71450584 160.96255375 -3.4375 165.6875 C-3.84871094 166.41324219 -4.25992188 167.13898438 -4.68359375 167.88671875 C-6.0239661 170.03847376 -7.36105527 172.06385996 -9 174 C-9.66 174 -10.32 174 -11 174 C-11 174.66 -11 175.32 -11 176 C-22.77401478 183.09927136 -33.06837557 186.68417116 -46.84765625 183.30078125 C-49.0625 182.5 -49.0625 182.5 -52 181 C-52 180.67 -52 180.34 -52 180 C-44.74 180 -37.48 180 -30 180 C-30.495 179.01 -30.495 179.01 -31 178 C-34.02934491 177.34227572 -34.02934491 177.34227572 -37 177 C-33.32195631 174.59512528 -31.21557379 175.23353204 -27 176 C-19.1904707 176.83965072 -19.1904707 176.83965072 -12.3125 173.6875 C-9.67387904 171.21190517 -9.67387904 171.21190517 -10 168 C-9.54625 167.566875 -9.0925 167.13375 -8.625 166.6875 C-6.4243481 164.40220764 -5.86929801 162.00910851 -5 159 C-4.34 159 -3.68 159 -3 159 C-3.495 154.545 -3.495 154.545 -4 150 C-3.01 150 -2.02 150 -1 150 C-1.66 147.36 -2.32 144.72 -3 142 C-2.34 142 -1.68 142 -1 142 C-1.165 141.05125 -1.33 140.1025 -1.5 139.125 C-2.18541792 134.4236123 -2.08583441 129.73996714 -2 125 C-2.66 125 -3.32 125 -4 125 C-3.125 120.125 -3.125 120.125 -2 119 C-1.7575049 116.63796658 -1.58408067 114.30514436 -1.45727539 111.93579102 C-1.39454359 110.80697305 -1.39454359 110.80697305 -1.33054447 109.65535069 C-0.79579712 99.12016572 -0.76538996 88.57361792 -0.68359375 78.02734375 C-0.66296982 75.76477222 -0.64197216 73.50220407 -0.62062073 71.23963928 C-0.5659607 65.34291354 -0.51630907 59.44615635 -0.46777344 53.54937744 C-0.41714354 47.50880197 -0.36167616 41.46827102 -0.30664062 35.42773438 C-0.19974707 23.61852779 -0.09815535 11.80928222 0 0 Z " fill="#C3F3BE" transform="translate(286,186)"/>
<path d="M0 0 C0.66 0.33 1.32 0.66 2 1 C1.3503125 1.61875 1.3503125 1.61875 0.6875 2.25 C-2.29671348 5.3447399 -4.43161053 7.62573329 -4.5 12.0625 C-3.85633369 17.13137215 -2.83507375 20.74738937 0 25 C0 25.99 0 26.98 0 28 C0.5775 28.2475 1.155 28.495 1.75 28.75 C4 30 4 30 5.6875 31.9375 C9.01264403 34.903169 12.7664518 35.8059223 17 37 C17.33 36.67 17.66 36.34 18 36 C17.34 34.35 16.68 32.7 16 31 C17.33463542 32.26953125 18.66927083 33.5390625 20.00390625 34.80859375 C25.7568209 38.2423295 33.70963596 37.04076648 40.1875 36.9375 C62.54734786 36.78945655 62.54734786 36.78945655 70 43 C69.67 44.32 69.34 45.64 69 47 C68.34 47 67.68 47 67 47 C67 46.01 67 45.02 67 44 C58.77673138 40.62308634 50.66906092 40.59969478 41.93896484 40.71875 C39.60888783 40.75021759 37.27948842 40.75976392 34.94921875 40.765625 C33.45832509 40.77478545 31.96743827 40.78515815 30.4765625 40.796875 C29.43902328 40.80324982 29.43902328 40.80324982 28.38052368 40.80975342 C25.08496599 40.85860532 22.18050888 41.18496532 19 42 C18.34 41.67 17.68 41.34 17 41 C17 40.34 17 39.68 17 39 C15.515 39.495 15.515 39.495 14 40 C14 39.34 14 38.68 14 38 C11.36 38 8.72 38 6 38 C5.773125 37.21625 5.54625 36.4325 5.3125 35.625 C3.65913521 32.31827043 2.33387661 32.28226023 -1 31 C-1.625 28.9375 -1.625 28.9375 -2 27 C-2.99 26.67 -3.98 26.34 -5 26 C-5.6875 23.9375 -5.6875 23.9375 -6 22 C-6.66 22.33 -7.32 22.66 -8 23 C-8.47001033 26.27555608 -8.47001033 26.27555608 -8.625 30.0625 C-8.69976562 31.35285156 -8.77453125 32.64320313 -8.8515625 33.97265625 C-8.90054688 34.97167969 -8.94953125 35.97070312 -9 37 C-8.01 37.33 -7.02 37.66 -6 38 C-6.04125 39.216875 -6.0825 40.43375 -6.125 41.6875 C-6.13754508 45.21894127 -5.59998217 47.80003566 -4 51 C-9.66030041 45.82724648 -11.63644137 39.82335829 -12.35546875 32.26171875 C-12.62388361 19.54396723 -9.5681336 11.21242124 -2 1 C-1.34 0.67 -0.68 0.34 0 0 Z " fill="#AE90EE" transform="translate(154,139)"/>
<path d="M0 0 C0.66 0.33 1.32 0.66 2 1 C1.95875 1.94875 1.9175 2.8975 1.875 3.875 C1.65026182 7.10244856 1.65026182 7.10244856 4 9 C3.443125 9.8353125 3.443125 9.8353125 2.875 10.6875 C1.68814184 13.037112 1.68814184 13.037112 3 15.5 C4 18 4 18 3.5 20.125 C0.4167139 23.97910762 -3.65194492 25.0845568 -8.375 25.6875 C-9.57125 25.790625 -10.7675 25.89375 -12 26 C-11.814375 26.78375 -11.62875 27.5675 -11.4375 28.375 C-11 31 -11 31 -12 33 C-11.43796875 32.82597656 -10.8759375 32.65195312 -10.296875 32.47265625 C-7.75443245 31.94946654 -5.81547663 32.09795162 -3.25 32.4375 C-2.45078125 32.53933594 -1.6515625 32.64117187 -0.828125 32.74609375 C-0.22484375 32.82988281 0.3784375 32.91367187 1 33 C1.33 33.99 1.66 34.98 2 36 C3.485 36.495 3.485 36.495 5 37 C5.66 37.66 6.32 38.32 7 39 C9.58354218 39.16687448 9.58354218 39.16687448 12 39 C12.12375 38.0925 12.2475 37.185 12.375 36.25 C12.92109677 33.41029677 13.57263803 31.47409409 15 29 C15 29.66 15 30.32 15 31 C16.32 31.66 17.64 32.32 19 33 C16.44651653 37.16123232 14.31554148 40.61267918 10 43 C4.15520008 43.88804712 -1.38516855 43.78356667 -6.37890625 40.39453125 C-11.98126863 35.57514964 -18.59900844 28.71165081 -19.25 21.0625 C-19.1675 20.381875 -19.085 19.70125 -19 19 C-17 20 -15 21 -13 22 C-9.12785818 22.43023798 -7.47503629 22.31669086 -4.1875 20.125 C-0.40288456 16.44851643 -0.70206825 12.89745958 -0.4375 7.875 C-0.39431641 7.12089844 -0.35113281 6.36679687 -0.30664062 5.58984375 C-0.2005168 3.72678112 -0.09974999 1.86341476 0 0 Z " fill="#5A752D" transform="translate(260,320)"/>
<path d="M0 0 C3.78761767 4.64843987 5.24451855 8.65752376 5.2784729 14.65046692 C5.29521812 16.33940063 5.29521812 16.33940063 5.31230164 18.06245422 C5.31446182 19.28812607 5.31662201 20.51379791 5.31884766 21.77661133 C5.32889328 23.07456635 5.3389389 24.37252136 5.34928894 25.70980835 C5.37655219 29.26103941 5.39172738 32.81223088 5.40471697 36.36353898 C5.42036364 40.07782921 5.44714895 43.79203879 5.4727478 47.50627136 C5.51950842 54.53614399 5.55626565 61.56603183 5.58942068 68.59598035 C5.62766128 76.60083061 5.67706636 84.60559982 5.72740483 92.61038172 C5.83068427 109.07352958 5.91995761 125.53672242 6 142 C8.89873324 143.52891079 10.76734763 144.23928274 14.0625 144.125 C16.37421076 144.05161236 18.68712466 144 21 144 C18.68515576 146.1367793 17.27316474 146.95843145 14.125 147.4375 C10.24990919 146.89498729 8.0808294 145.34729859 5 143 C5 143.99 5 144.98 5 146 C4.34 146 3.68 146 3 146 C3 141.05 3 136.1 3 131 C2.34 131 1.68 131 1 131 C0.74603706 123.50809334 0.74603706 123.50809334 1.99504089 121.00926208 C3.48114933 116.55924045 3.28641387 112.27550557 3.2746582 107.61352539 C3.27976913 106.56904739 3.28488007 105.5245694 3.29014587 104.44844055 C3.30403829 100.99812072 3.30308539 97.54800071 3.30078125 94.09765625 C3.30466824 91.69778875 3.30900291 89.29792195 3.31376648 86.89805603 C3.32122785 81.86861948 3.32093788 76.83925313 3.31567383 71.80981445 C3.30987802 65.36579193 3.32681357 58.92205672 3.3500185 52.4780817 C3.36475205 47.52211325 3.36562806 42.56621406 3.36250877 37.61022758 C3.36302213 35.23438383 3.36826253 32.85853622 3.37832069 30.4827137 C3.39066067 27.16024233 3.38390769 23.83833158 3.37231445 20.51586914 C3.38378006 19.04518982 3.38378006 19.04518982 3.39547729 17.5447998 C3.35392988 12.15613351 2.72008775 8.77577356 0 4 C0 2.68 0 1.36 0 0 Z " fill="#C5F8EF" transform="translate(236,196)"/>
<path d="M0 0 C5.72999674 0.21240571 11.45888457 0.44282397 17.1875 0.68969727 C19.13489194 0.77110835 21.08249344 0.84766173 23.03027344 0.91918945 C25.83598426 1.02307813 28.64046812 1.14462746 31.4453125 1.26953125 C32.74409836 1.3119268 32.74409836 1.3119268 34.06912231 1.35517883 C39.80738201 1.63366366 44.53180794 2.338108 48.63934803 6.76800156 C50.32014492 9.52516218 50.37007687 11.2001203 50.36076355 14.4163208 C50.36488754 15.51565948 50.36901154 16.61499817 50.3732605 17.74765015 C50.36247467 18.94886505 50.35168884 20.15007996 50.34057617 21.38769531 C50.34123329 23.29051773 50.34123329 23.29051773 50.34190369 25.23178101 C50.34276426 28.7067676 50.3251288 32.18144339 50.30418181 35.65635777 C50.28542517 39.28917934 50.28366538 42.92200808 50.28010559 46.55487061 C50.27078213 53.43258694 50.24616434 60.31016019 50.21605712 67.18781352 C50.18252243 75.01845051 50.16602946 82.84909433 50.15097082 90.67978525 C50.11961499 106.78660726 50.06684872 122.89328537 50 139 C49.67 139 49.34 139 49 139 C48.99761165 138.34493123 48.99522329 137.68986246 48.99276257 137.01494312 C48.9336198 121.07373989 48.85807451 105.13271148 48.76428509 89.19167805 C48.71932446 81.48269836 48.67991046 73.7737649 48.65356445 66.06469727 C48.63058648 59.34526434 48.59719082 52.62597767 48.55129844 45.90666074 C48.52736334 42.34899456 48.50863652 38.79147326 48.50238609 35.23372841 C48.49521231 31.261533 48.46477971 27.28970063 48.43237305 23.31762695 C48.43380814 22.1387088 48.43524323 20.95979065 48.4367218 19.74514771 C48.42418365 18.66126266 48.41164551 17.57737762 48.39872742 16.46064758 C48.39411845 15.52134053 48.38950949 14.58203348 48.38476086 13.61426258 C47.92161904 10.46743959 46.84927454 8.56713878 45 6 C42.01953191 4.50976596 38.953894 4.82292403 35.68359375 4.7890625 C34.18163029 4.76096365 32.67967733 4.73229904 31.17773438 4.703125 C28.81698239 4.66210666 26.45641996 4.625213 24.09545898 4.59863281 C15.62278255 4.49503521 7.92142805 4.39360148 0 1 C0 0.67 0 0.34 0 0 Z " fill="#B4ECF1" transform="translate(164,201)"/>
<path d="M0 0 C2.49005677 2.49005677 2.29703766 3.37470732 2.3125 6.8125 C2.22726136 11.03790136 1.74482298 13.64521636 -1 17 C-1.433125 17.556875 -1.86625 18.11375 -2.3125 18.6875 C-6.67607401 22.0813909 -11.75192886 22.24739615 -17.07926941 22.23377991 C-18.11283938 22.23528483 -18.11283938 22.23528483 -19.16728956 22.23682016 C-21.4634503 22.23776859 -23.75930076 22.22445902 -26.05541992 22.21118164 C-27.70658781 22.20897922 -29.3577571 22.20767469 -31.00892639 22.2071991 C-34.55785733 22.20427041 -38.10669578 22.19503938 -41.65559959 22.18089485 C-47.26472741 22.15860712 -52.87382104 22.15053541 -58.48298645 22.14439392 C-67.3509389 22.13302143 -76.21884048 22.11229889 -85.08676463 22.08749622 C-100.97922859 22.04312785 -116.87171063 22.01000236 -132.76422006 21.98725218 C-138.34313404 21.97883417 -143.921998 21.96479909 -149.50088727 21.94627964 C-152.96558611 21.9356551 -156.43028446 21.92905965 -159.89499474 21.92347908 C-161.50468927 21.92000174 -163.1143811 21.91478027 -164.72406387 21.90771103 C-166.91662169 21.89829183 -169.10910619 21.89498731 -171.30168152 21.89320374 C-172.530013 21.88968431 -173.75834448 21.88616488 -175.02389812 21.8825388 C-178.66916029 22.02641051 -180.39719259 22.39719259 -183 25 C-183 24.01 -183 23.02 -183 22 C-179.32060377 19.54706918 -177.53343192 19.74741297 -173.14309692 19.74171448 C-172.44169047 19.73803877 -171.74028402 19.73436307 -171.01762283 19.73057598 C-168.66157743 19.72057639 -166.30576715 19.72475062 -163.94970703 19.72875977 C-162.26281482 19.72437382 -160.57592478 19.71907215 -158.88903809 19.71292114 C-155.25332438 19.70140949 -151.61766904 19.69596087 -147.98193741 19.69503975 C-142.23382498 19.69310169 -136.48583352 19.67506295 -130.73776245 19.65428162 C-116.45891639 19.60505559 -102.1800374 19.57420355 -87.90112305 19.55297852 C-76.80805772 19.53646308 -65.71509579 19.51366697 -54.62209976 19.46995777 C-48.90740102 19.44815879 -43.19289856 19.44012569 -37.4781611 19.44235051 C-33.92261814 19.44068469 -30.36720347 19.42664169 -26.81170654 19.40913773 C-25.162555 19.40353454 -23.5133769 19.40305638 -21.86422348 19.40807533 C-19.61281185 19.41420889 -17.36221138 19.40200003 -15.11087036 19.38526917 C-13.85098864 19.38325784 -12.59110691 19.38124651 -11.29304695 19.37917423 C-6.80187671 18.86204343 -4.1964306 17.32019928 -1.1875 14 C0.63063306 9.40682175 0.23074239 4.87977427 0 0 Z " fill="#96E3F9" transform="translate(356,137)"/>
<path d="M0 0 C1.37109375 1.37109375 1.37109375 1.37109375 3.24609375 3.74609375 C2.91609375 4.73609375 2.58609375 5.72609375 2.24609375 6.74609375 C1.56546875 5.53953125 1.56546875 5.53953125 0.87109375 4.30859375 C-0.5011629 1.65752803 -0.5011629 1.65752803 -2.75390625 0.74609375 C-8.30142583 0.31705896 -13.67056715 0.26641614 -18.75390625 2.74609375 C-21.90855203 6.01045222 -22.12955424 8.44245153 -22.13244629 12.90150452 C-22.14064896 14.1647908 -22.14885162 15.42807709 -22.15730286 16.72964478 C-22.15134458 18.12713733 -22.14512551 19.52462879 -22.13867188 20.92211914 C-22.14277742 22.39565959 -22.14823819 23.86919679 -22.154953 25.34272766 C-22.16667694 28.514106 -22.16916283 31.68531032 -22.16459656 34.85670662 C-22.15779201 39.8692782 -22.17364514 44.88162032 -22.19299316 49.89414978 C-22.23408181 61.43764713 -22.24540126 72.98113824 -22.25652313 84.52469635 C-22.26702329 95.10704569 -22.28375659 105.68928501 -22.32461882 116.27156633 C-22.3430074 121.25676771 -22.34685613 126.2417073 -22.33968353 131.22693455 C-22.33816481 134.32458808 -22.34892535 137.42210985 -22.3630619 140.51972771 C-22.36707421 141.9584796 -22.36592314 143.39725634 -22.35928917 144.83599854 C-22.35094191 146.79654412 -22.36260783 148.75714478 -22.37536621 150.71766663 C-22.37607872 151.81585755 -22.37679123 152.91404848 -22.37752533 154.04551792 C-22.79568932 157.04589204 -23.38263126 157.94199098 -25.75390625 159.74609375 C-25.59133677 159.21249394 -25.4287673 158.67889414 -25.26127148 158.12912464 C-24.64573178 155.2380118 -24.63243681 152.5752821 -24.63606262 149.61759949 C-24.63494476 148.36009384 -24.6338269 147.1025882 -24.63267517 145.80697632 C-24.63633979 144.4158324 -24.64004918 143.02468861 -24.64379883 141.63354492 C-24.64404102 140.16649882 -24.64376357 138.69945255 -24.64300537 137.23240662 C-24.64189969 134.07417975 -24.64333062 130.91596743 -24.64637184 127.75774193 C-24.65000588 122.76093395 -24.6408623 117.76420163 -24.62858582 112.76741028 C-24.62656389 111.92369643 -24.62454196 111.07998258 -24.62245876 110.21070164 C-24.61829018 108.48550089 -24.61408742 106.76030022 -24.60985124 105.03509963 C-24.58171492 93.40380754 -24.56157882 81.77267992 -24.57885742 70.14135742 C-24.59042078 62.29309634 -24.58081016 54.44517528 -24.54679984 46.59697515 C-24.5296563 42.44555692 -24.52333817 38.29475231 -24.54291725 34.14333153 C-24.56117487 30.23680291 -24.55148908 26.33133061 -24.5206604 22.42489052 C-24.51430618 20.99427211 -24.51812012 19.56356541 -24.53305626 18.13301086 C-24.65035774 5.99354929 -24.65035774 5.99354929 -20.87846375 1.43745422 C-15.1150266 -4.13215174 -6.65732608 -4.7594692 0 0 Z " fill="#D0FDEF" transform="translate(282.75390625,179.25390625)"/>
<path d="M0 0 C2.00195312 1.90429688 2.00195312 1.90429688 4.00390625 3.80859375 C9.7568209 7.2423295 17.70963596 6.04076648 24.1875 5.9375 C46.54734786 5.78945655 46.54734786 5.78945655 54 12 C53.67 13.32 53.34 14.64 53 16 C52.34 16 51.68 16 51 16 C51 15.01 51 14.02 51 13 C42.77673138 9.62308634 34.66906092 9.59969478 25.93896484 9.71875 C23.60888783 9.75021759 21.27948842 9.75976392 18.94921875 9.765625 C17.45832509 9.77478545 15.96743827 9.78515815 14.4765625 9.796875 C13.43902328 9.80324982 13.43902328 9.80324982 12.38052368 9.80975342 C9.08496599 9.85860532 6.18050888 10.18496532 3 11 C2.34 10.67 1.68 10.34 1 10 C1 9.34 1 8.68 1 8 C0.01 8.33 -0.98 8.66 -2 9 C-2 8.34 -2 7.68 -2 7 C-4.64 7 -7.28 7 -10 7 C-10.33 5.35 -10.66 3.7 -11 2 C-10.175 2.28875 -9.35 2.5775 -8.5 2.875 C-4.69204819 4.09898451 -0.88729173 5.0616882 3 6 C2.2575 5.071875 2.2575 5.071875 1.5 4.125 C0 2 0 2 0 0 Z " fill="#98C3EC" transform="translate(170,170)"/>
<path d="M0 0 C0.68377213 -0.00014603 1.36754425 -0.00029205 2.07203674 -0.0004425 C4.30660298 0.00024784 6.54108329 0.00799863 8.77563477 0.01586914 C10.33504694 0.01773645 11.89445971 0.01915887 13.45387268 0.02015686 C17.53910977 0.02395743 21.62431077 0.03376648 25.70953369 0.04486084 C29.88585929 0.05512808 34.06219078 0.05966582 38.23852539 0.06469727 C46.41888041 0.07539116 54.59920621 0.09243774 62.77954102 0.11352539 C62.77954102 1.10352539 62.77954102 2.09352539 62.77954102 3.11352539 C61.95969727 3.10192383 61.13985352 3.09032227 60.29516602 3.07836914 C58.67868164 3.06483398 58.67868164 3.06483398 57.02954102 3.05102539 C55.96219727 3.03942383 54.89485352 3.02782227 53.79516602 3.01586914 C51.245856 3.09842452 49.20020511 3.36734981 46.77954102 4.11352539 C46.77954102 3.45352539 46.77954102 2.79352539 46.77954102 2.11352539 C42.92543895 2.05505494 39.07145237 2.01977134 35.21704102 1.98852539 C34.13100586 1.97176758 33.0449707 1.95500977 31.92602539 1.93774414 C26.1347466 1.9025388 21.23819459 2.12428865 15.77954102 4.11352539 C15.28454102 2.62852539 15.28454102 2.62852539 14.77954102 1.11352539 C12.98747554 1.25437335 11.19589185 1.4013624 9.40454102 1.55102539 C7.90793945 1.6728418 7.90793945 1.6728418 6.38110352 1.79711914 C3.80026488 1.96318165 3.80026488 1.96318165 1.77954102 3.11352539 C-0.84545898 2.17602539 -0.84545898 2.17602539 -3.22045898 1.11352539 C-3.55045898 2.10352539 -3.88045898 3.09352539 -4.22045898 4.11352539 C-4.55045898 3.45352539 -4.88045898 2.79352539 -5.22045898 2.11352539 C-5.88045898 2.11352539 -6.54045898 2.11352539 -7.22045898 2.11352539 C-7.55045898 3.10352539 -7.88045898 4.09352539 -8.22045898 5.11352539 C-10.20045898 5.44352539 -12.18045898 5.77352539 -14.22045898 6.11352539 C-14.55045898 7.10352539 -14.88045898 8.09352539 -15.22045898 9.11352539 C-15.55045898 8.12352539 -15.88045898 7.13352539 -16.22045898 6.11352539 C-17.87045898 6.44352539 -19.52045898 6.77352539 -21.22045898 7.11352539 C-20.22045898 4.11352539 -20.22045898 4.11352539 -17.59545898 2.48852539 C-11.85361155 0.14925421 -6.14429353 -0.01111084 0 0 Z " fill="#4D0DB1" transform="translate(177.220458984375,131.886474609375)"/>
<path d="M0 0 C0.33 0 0.66 0 1 0 C1.13976354 7.38929721 1.24600296 14.77830393 1.31087303 22.16866112 C1.34202727 25.60136374 1.38419868 29.03315424 1.45263672 32.46533203 C1.53103018 36.42208475 1.55954968 40.37848381 1.5859375 44.3359375 C1.61690521 45.55300385 1.64787292 46.77007019 1.67977905 48.02401733 C1.68287766 55.95844135 0.35147598 61.9059762 -5 68 C-6.485 68.495 -6.485 68.495 -8 69 C-8.33 68.01 -8.66 67.02 -9 66 C-8.54625 65.62875 -8.0925 65.2575 -7.625 64.875 C-5.52970606 62.45735315 -4.87986715 60.04569398 -4 57 C-3.34 57 -2.68 57 -2 57 C-2.33 54.03 -2.66 51.06 -3 48 C-2.01 48 -1.02 48 0 48 C-0.66 45.36 -1.32 42.72 -2 40 C-1.34 40 -0.68 40 0 40 C-0.165 39.05125 -0.33 38.1025 -0.5 37.125 C-1.18541792 32.4236123 -1.08583441 27.73996714 -1 23 C-1.66 23 -2.32 23 -3 23 C-2.125 18.125 -2.125 18.125 -1 17 C-0.76298761 14.14122091 -0.57780818 11.30116703 -0.4375 8.4375 C-0.39431641 7.63119141 -0.35113281 6.82488281 -0.30664062 5.99414062 C-0.20024738 3.99631195 -0.09959112 1.9981793 0 0 Z " fill="#BCE297" transform="translate(285,288)"/>
<path d="M0 0 C0.33 0 0.66 0 1 0 C1.02320072 9.02323797 1.04095447 18.04646562 1.05181217 27.06972694 C1.0570241 31.25987428 1.064091 35.45000116 1.07543945 39.64013672 C1.08632847 43.68609187 1.09228957 47.73202738 1.09487724 51.77799606 C1.09672066 53.31930221 1.10032037 54.86060731 1.10573006 56.40190506 C1.11302035 58.56564889 1.11398758 60.72931222 1.11352539 62.89306641 C1.115746 64.12328522 1.11796661 65.35350403 1.12025452 66.6210022 C1.00579651 69.83712539 0.60871646 72.84367429 0 76 C-2.55781522 72.16327717 -2.25306456 69.05464013 -2.1953125 64.61328125 C-2.1924826 63.79627243 -2.18965271 62.97926361 -2.18673706 62.13749695 C-2.17554541 59.52901541 -2.1504429 56.9208777 -2.125 54.3125 C-2.11496888 52.54362475 -2.10584326 50.77474412 -2.09765625 49.00585938 C-2.07560942 44.67044051 -2.0410867 40.33527855 -2 36 C-1.34 36 -0.68 36 0 36 C-0.185625 35.34 -0.37125 34.68 -0.5625 34 C-1.13027308 30.10669886 -0.59281707 26.88624521 0 23 C-0.66 22.67 -1.32 22.34 -2 22 C-1.84152588 21.42926758 -1.68305176 20.85853516 -1.51977539 20.27050781 C-1.00638657 18.02789812 -0.79834104 15.96682085 -0.68359375 13.671875 C-0.64169922 12.87265625 -0.59980469 12.0734375 -0.55664062 11.25 C-0.49766602 10.0125 -0.49766602 10.0125 -0.4375 8.75 C-0.39431641 7.90953125 -0.35113281 7.0690625 -0.30664062 6.203125 C-0.20091457 4.13559329 -0.09998705 2.06781719 0 0 Z " fill="#17C7B7" transform="translate(285,186)"/>
<path d="M0 0 C0.66 0.33 1.32 0.66 2 1 C1.95875 1.94875 1.9175 2.8975 1.875 3.875 C1.65026182 7.10244856 1.65026182 7.10244856 4 9 C3.443125 9.8353125 3.443125 9.8353125 2.875 10.6875 C1.68814184 13.037112 1.68814184 13.037112 3 15.5 C4 18 4 18 3.5 20.125 C0.91794859 23.35256426 -2.18362566 24.72927523 -6.25390625 25.3359375 C-7.78406261 25.48214684 -9.31700633 25.60256352 -10.8515625 25.69140625 C-13.23571392 26.03385709 -14.91274577 26.82414863 -17 28 C-18.85776765 24.86501708 -19.20140476 22.62528568 -19 19 C-17 20 -15 21 -13 22 C-9.12785818 22.43023798 -7.47503629 22.31669086 -4.1875 20.125 C-0.40288456 16.44851643 -0.70206825 12.89745958 -0.4375 7.875 C-0.39431641 7.12089844 -0.35113281 6.36679687 -0.30664062 5.58984375 C-0.2005168 3.72678112 -0.09974999 1.86341476 0 0 Z " fill="#628F4E" transform="translate(260,320)"/>
<path d="M0 0 C0.66 0.66 1.32 1.32 2 2 C5.08347826 2.16681109 5.08347826 2.16681109 8 2 C7.34 3.32 6.68 4.64 6 6 C3.36 6 0.72 6 -2 6 C-2.33 6.66 -2.66 7.32 -3 8 C-3.98731742 9.34275169 -4.98594743 10.67732273 -6 12 C-6.33 10.68 -6.66 9.36 -7 8 C-6.67 9.98 -6.34 11.96 -6 14 C-6.99 14 -7.98 14 -9 14 C-9 16.97 -9 19.94 -9 23 C-9.66 22.67 -10.32 22.34 -11 22 C-11.484375 19.671875 -11.484375 19.671875 -11.75 16.75 C-11.84796875 15.79609375 -11.9459375 14.8421875 -12.046875 13.859375 C-11.97087071 9.22311332 -10.61137474 6.68975611 -7.5625 3.25 C-4.98607024 0.98776899 -3.4536993 0 0 0 Z " fill="#2F0676" transform="translate(161,138)"/>
<path d="M0 0 C0.33 0 0.66 0 1 0 C1 2.64 1 5.28 1 8 C1.66 8.33 2.32 8.66 3 9 C2.67 9.33 2.34 9.66 2 10 C1.92674832 12.86267567 1.90761795 15.700719 1.9375 18.5625 C1.94201172 19.36880859 1.94652344 20.17511719 1.95117188 21.00585938 C1.96299482 23.00393756 1.98093086 25.00197783 2 27 C2.66 27.33 3.32 27.66 4 28 C4 29.65 4 31.3 4 33 C5.32 32.34 6.64 31.68 8 31 C8 33.64 8 36.28 8 39 C9.32 39.33 10.64 39.66 12 40 C12 40.99 12 41.98 12 43 C14.475 42.505 14.475 42.505 17 42 C17 42.99 17 43.98 17 45 C14 47 14 47 12 48 C12 47.34 12 46.68 12 46 C11.01 45.67 10.02 45.34 9 45 C7.24609375 42.9609375 7.24609375 42.9609375 5.4375 40.375 C4.83808594 39.53710938 4.23867187 38.69921875 3.62109375 37.8359375 C-0.84103565 30.02989907 -0.24040721 22.3556414 -0.125 13.5625 C-0.11597656 12.25861328 -0.10695312 10.95472656 -0.09765625 9.61132812 C-0.07418397 6.40736168 -0.04134727 3.20377736 0 0 Z " fill="#90E884" transform="translate(214,312)"/>
<path d="M0 0 C0.99 0.33 1.98 0.66 3 1 C3.90837763 3.47739354 4 5.33579484 4 8 C4.33 8.66 4.66 9.32 5 10 C6.32 9.34 7.64 8.68 9 8 C9 8.99 9 9.98 9 11 C9.45345268 12.41164137 9.95715349 13.80776511 10.5 15.1875 C10.7784375 15.90292969 11.056875 16.61835938 11.34375 17.35546875 C11.5603125 17.89816406 11.776875 18.44085938 12 19 C11.01 19.33 10.02 19.66 9 20 C8.608125 19.525625 8.21625 19.05125 7.8125 18.5625 C6.07969644 16.76627071 6.07969644 16.76627071 3.5 16.75 C1 16 1 16 -0.8125 12.8125 C-1.93744835 9.20082371 -2.42438962 6.73462867 -2 3 C-1.34 2.01 -0.68 1.02 0 0 Z " fill="#496DEF" transform="translate(149,176)"/>
<path d="M0 0 C0.8353125 0.12568359 0.8353125 0.12568359 1.6875 0.25390625 C7.05791108 0.97056584 11.65383432 0.87482711 17 0 C17 0.66 17 1.32 17 2 C19.97 2 22.94 2 26 2 C26 2.66 26 3.32 26 4 C24.88757935 4.029729 24.88757935 4.029729 23.75268555 4.06005859 C20.39726166 4.15522928 17.04246714 4.26494094 13.6875 4.375 C11.93663086 4.42140625 11.93663086 4.42140625 10.15039062 4.46875 C8.47299805 4.52675781 8.47299805 4.52675781 6.76171875 4.5859375 C5.2142395 4.63306885 5.2142395 4.63306885 3.63549805 4.68115234 C0.77156764 4.82674629 0.77156764 4.82674629 -2 7 C-2.72382467 9.05925139 -2.72382467 9.05925139 -3 11 C-3.33 11 -3.66 11 -4 11 C-4.33 12.98 -4.66 14.96 -5 17 C-5.33 17 -5.66 17 -6 17 C-6.05389087 15.04196493 -6.09274217 13.08351091 -6.125 11.125 C-6.14820313 10.03445312 -6.17140625 8.94390625 -6.1953125 7.8203125 C-6 5 -6 5 -4 3 C-2.68 3 -1.36 3 0 3 C0 2.01 0 1.02 0 0 Z " fill="#3730A2" transform="translate(175,153)"/>
<path d="M0 0 C1.37109375 1.37109375 1.37109375 1.37109375 3.24609375 3.74609375 C2.91609375 4.73609375 2.58609375 5.72609375 2.24609375 6.74609375 C1.56546875 5.53953125 1.56546875 5.53953125 0.87109375 4.30859375 C-0.5011629 1.65752803 -0.5011629 1.65752803 -2.75390625 0.74609375 C-8.30142583 0.31705896 -13.67056715 0.26641614 -18.75390625 2.74609375 C-21.53199924 5.27049673 -21.97661084 7.45316588 -22.1862793 11.05566406 C-22.22762806 12.81156132 -22.25312811 14.56787916 -22.265625 16.32421875 C-22.2835762 17.25079285 -22.3015274 18.17736694 -22.32002258 19.13201904 C-22.37413326 22.08666455 -22.40802382 25.04114844 -22.44140625 27.99609375 C-22.47457865 30.00132458 -22.50906823 32.00653407 -22.54492188 34.01171875 C-22.62986027 38.92306049 -22.69666798 43.83435423 -22.75390625 48.74609375 C-23.08390625 48.74609375 -23.41390625 48.74609375 -23.75390625 48.74609375 C-23.90271776 42.75051637 -24.01134172 36.756024 -24.08349609 30.7590332 C-24.1135873 28.72108219 -24.15447132 26.68325983 -24.20654297 24.64575195 C-24.27969722 21.70882373 -24.31343901 18.77361356 -24.33984375 15.8359375 C-24.37081146 14.93149399 -24.40177917 14.02705048 -24.4336853 13.09519958 C-24.43673719 7.3012569 -23.35104192 4.27370076 -19.31436157 0.07521057 C-13.91816302 -4.52099809 -5.70668117 -4.0798322 0 0 Z " fill="#C6FCFD" transform="translate(282.75390625,179.25390625)"/>
<path d="M0 0 C1.32 0.33 2.64 0.66 4 1 C4 1.66 4 2.32 4 3 C4.86625 3.3403125 4.86625 3.3403125 5.75 3.6875 C8.72046866 5.42027339 10.18020872 7.07533544 12 10 C12.25 13.8125 12.25 13.8125 12 17 C9.83125748 16.49396008 8.00032373 16.00016187 6 15 C6.33 13.02 6.66 11.04 7 9 C6.01 9 5.02 9 4 9 C3.67 10.65 3.34 12.3 3 14 C2.49506997 11.98027989 1.99049357 9.96078598 1.5 7.9375 C1.07018312 6.2719596 0.54394553 4.63183658 0 3 C0 2.01 0 1.02 0 0 Z " fill="#12BAE0" transform="translate(224,183)"/>
<path d="M0 0 C15.84 0 31.68 0 48 0 C48 0.99 48 1.98 48 3 C47.18015625 2.98839844 46.3603125 2.97679687 45.515625 2.96484375 C43.89914063 2.95130859 43.89914063 2.95130859 42.25 2.9375 C41.18265625 2.92589844 40.1153125 2.91429687 39.015625 2.90234375 C36.46631499 2.98489913 34.42066409 3.25382442 32 4 C32 3.34 32 2.68 32 2 C28.14589793 1.94152955 24.29191135 1.90624595 20.4375 1.875 C19.35146484 1.85824219 18.26542969 1.84148437 17.14648438 1.82421875 C11.35520558 1.78901341 6.45865358 2.01076326 1 4 C0.67 2.68 0.34 1.36 0 0 Z " fill="#4746DC" transform="translate(192,132)"/>
<path d="M0 0 C0.33 0 0.66 0 1 0 C1.00410889 0.64549805 1.00821777 1.29099609 1.01245117 1.95605469 C1.04540063 4.88829328 1.11604365 7.81845757 1.1875 10.75 C1.19330078 11.76578125 1.19910156 12.7815625 1.20507812 13.828125 C1.28289231 19.77028327 1.28289231 19.77028327 4.29296875 24.6875 C6.90772737 25.95526175 8.27209966 26.4513812 11.125 26.25 C13.41342367 26.10235976 15.70681868 26 18 26 C15.68515576 28.1367793 14.27316474 28.95843145 11.125 29.4375 C7.24990919 28.89498729 5.0808294 27.34729859 2 25 C2 25.99 2 26.98 2 28 C1.34 28 0.68 28 0 28 C0 23.05 0 18.1 0 13 C-0.66 13 -1.32 13 -2 13 C-2.16682272 8.07872966 -2.24828052 4.49656104 0 0 Z " fill="#99E4A7" transform="translate(239,314)"/>
<path d="M0 0 C1.4370809 -0.05422947 2.87475462 -0.09289723 4.3125 -0.125 C5.11300781 -0.14820313 5.91351563 -0.17140625 6.73828125 -0.1953125 C9 0 9 0 12 2 C11.360625 2.20625 10.72125 2.4125 10.0625 2.625 C7.74173568 3.83884795 7.74173568 3.83884795 7.3671875 6.51171875 C6.83543226 11.56339349 6.99316774 16.55917708 7.12695312 21.63085938 C7.13791016 22.40623047 7.14886719 23.18160156 7.16015625 23.98046875 C7.17699463 24.68067139 7.19383301 25.38087402 7.21118164 26.10229492 C7 28 7 28 5 31 C4.9906543 30.27409668 4.98130859 29.54819336 4.97167969 28.80029297 C4.91778719 25.49118786 4.83417561 22.18346762 4.75 18.875 C4.73582031 17.73289063 4.72164062 16.59078125 4.70703125 15.4140625 C4.52195137 9.04731473 4.30972193 4.84412745 0 0 Z " fill="#0E5C68" transform="translate(209,204)"/>
<path d="M0 0 C7.59 0 15.18 0 23 0 C23 0.33 23 0.66 23 1 C23.59167969 0.98839844 24.18335938 0.97679687 24.79296875 0.96484375 C29.00231785 0.91677614 32.8922333 0.93993117 37 2 C37 1.34 37 0.68 37 0 C37.99 0 38.98 0 40 0 C40 0.99 40 1.98 40 3 C32.90299419 4.15958449 26.04544432 3.98189957 18.875 3.6875 C17.72128906 3.65205078 16.56757813 3.61660156 15.37890625 3.58007812 C13.70248047 3.51530273 13.70248047 3.51530273 11.9921875 3.44921875 C10.98526855 3.41143311 9.97834961 3.37364746 8.94091797 3.3347168 C5.74585403 2.9710747 3.00875442 2.11380429 0 1 C0 0.67 0 0.34 0 0 Z " fill="#10ADE4" transform="translate(173,200)"/>
<path d="M0 0 C0.66 0 1.32 0 2 0 C2 0.99 2 1.98 2 3 C2.66 3.33 3.32 3.66 4 4 C6.31274639 10.12877792 6.31274639 10.12877792 5.125 13.4375 C4.75375 13.953125 4.3825 14.46875 4 15 C-2.76470588 9.70588235 -2.76470588 9.70588235 -4 6 C-4 5.01 -4 4.02 -4 3 C-2.68 3 -1.36 3 0 3 C0 2.01 0 1.02 0 0 Z " fill="#251778" transform="translate(156,157)"/>
<path d="M0 0 C8.25 0 16.5 0 25 0 C24.34 1.32 23.68 2.64 23 4 C20 4 20 4 16.875 3.5 C13.20855397 3.02691019 9.79529024 2.95786031 6.11328125 3.0625 C3.937434 2.99814962 2.08568792 2.60263669 0 2 C0 1.34 0 0.68 0 0 Z " fill="#1B8FED" transform="translate(263,132)"/>
<path d="M0 0 C6.35470441 0.47960033 6.35470441 0.47960033 8.9375 2.5625 C10.49883222 6.1443798 10.19450345 9.10993102 10 13 C8 13 8 13 5.875 11 C5.25625 10.34 4.6375 9.68 4 9 C4.33 8.01 4.66 7.02 5 6 C4.67 5.34 4.34 4.68 4 4 C3.01 4 2.02 4 1 4 C0.67 2.68 0.34 1.36 0 0 Z " fill="#1DC2CF" transform="translate(275,179)"/>
<path d="M0 0 C0.33 0 0.66 0 1 0 C1 5.94 1 11.88 1 18 C-0.32 18.33 -1.64 18.66 -3 19 C-3 14.05 -3 9.1 -3 4 C-2.34 4 -1.68 4 -1 4 C-0.67 2.68 -0.34 1.36 0 0 Z " fill="#4EDA99" transform="translate(285,270)"/>
<path d="M0 0 C-8.75511985 5.09388791 -19.0587514 5.65043275 -28.875 3.31640625 C-31.0625 2.5 -31.0625 2.5 -34 1 C-34 0.67 -34 0.34 -34 0 C-30.75615919 -0.15446861 -28.32286594 -0.1174058 -25.25 1 C-18.12509874 3.19227731 -11.72946214 2.34324679 -4.91015625 -0.44140625 C-3 -1 -3 -1 0 0 Z " fill="#EDFDCB" transform="translate(268,366)"/>
<path d="M0 0 C0.33 0 0.66 0 1 0 C1 2.64 1 5.28 1 8 C1.66 8.33 2.32 8.66 3 9 C2.67 9.33 2.34 9.66 2 10 C1.92674832 12.86267567 1.90761795 15.700719 1.9375 18.5625 C1.94201172 19.36880859 1.94652344 20.17511719 1.95117188 21.00585938 C1.96299482 23.00393756 1.98093086 25.00197783 2 27 C2.66 27.33 3.32 27.66 4 28 C4.4140625 30.28515625 4.4140625 30.28515625 4.625 33.0625 C4.69976562 33.98160156 4.77453125 34.90070313 4.8515625 35.84765625 C4.90054688 36.55792969 4.94953125 37.26820313 5 38 C1.58965669 35.36473471 0.6078629 32.11286511 0 28 C-0.23140116 23.18405541 -0.18826112 18.38251072 -0.125 13.5625 C-0.11597656 12.25861328 -0.10695312 10.95472656 -0.09765625 9.61132812 C-0.07418397 6.40736168 -0.04134727 3.20377736 0 0 Z " fill="#6BDE9B" transform="translate(214,312)"/>
<path d="M0 0 C2 2 2 2 2.75 4.5625 C4.46615353 9.28192221 7.32660774 15.66330387 12 18 C12 18.66 12 19.32 12 20 C12.66 20 13.32 20 14 20 C15.7143618 21.95927063 17.38405168 23.95880212 19 26 C9.65442571 22.7958031 5.30315099 15.88559227 0.953125 7.5 C-0.06976973 4.81699744 -0.18292895 2.84556139 0 0 Z " fill="#DCFBD6" transform="translate(214,340)"/>
<path d="M0 0 C0.66 0.33 1.32 0.66 2 1 C1.95875 1.94875 1.9175 2.8975 1.875 3.875 C1.65026182 7.10244856 1.65026182 7.10244856 4 9 C3.443125 9.8353125 3.443125 9.8353125 2.875 10.6875 C1.67859754 13.04418367 1.67859754 13.04418367 3.0625 15.5 C3.371875 16.325 3.68125 17.15 4 18 C2.625 20.3125 2.625 20.3125 1 22 C0.34 21.34 -0.32 20.68 -1 20 C-2.98 20.99 -2.98 20.99 -5 22 C-4.35546875 21.18273437 -3.7109375 20.36546875 -3.046875 19.5234375 C-0.48098465 15.67460198 -0.34004907 12.1520121 -0.25 7.625 C-0.22035156 6.88894531 -0.19070313 6.15289062 -0.16015625 5.39453125 C-0.09011967 3.5969257 -0.04271881 1.7984621 0 0 Z " fill="#7DB062" transform="translate(260,320)"/>
<path d="M0 0 C2.45605371 2.55274874 2.98802939 3.85890643 3.29296875 7.453125 C3.25816406 8.70609375 3.22335938 9.9590625 3.1875 11.25 C3.16042969 12.51328125 3.13335937 13.7765625 3.10546875 15.078125 C3.07066406 16.04234375 3.03585938 17.0065625 3 18 C0.33333333 14.66666667 -2.33333333 11.33333333 -5 8 C-3.35 8 -1.7 8 0 8 C0 5.36 0 2.72 0 0 Z " fill="#26BECB" transform="translate(237,202)"/>
<path d="M0 0 C0 11.55 0 23.1 0 35 C-0.33 35 -0.66 35 -1 35 C-1.62340626 26.65080904 -2.17740812 18.37760553 -2 10 C-2.33 10 -2.66 10 -3 10 C-3 7.03 -3 4.06 -3 1 C-1 0 -1 0 0 0 Z " fill="#20BDAC" transform="translate(240,245)"/>
<path d="M0 0 C4.48548455 0.46474408 8.98443508 0.33357814 13.48828125 0.2578125 C10.23074201 2.19490888 7.83218197 2.49496695 4.06640625 2.453125 C2.52919922 2.44345703 2.52919922 2.44345703 0.9609375 2.43359375 C-0.10253906 2.41683594 -1.16601562 2.40007812 -2.26171875 2.3828125 C-3.88013672 2.36927734 -3.88013672 2.36927734 -5.53125 2.35546875 C-8.19163153 2.33192555 -10.85156211 2.29904049 -13.51171875 2.2578125 C-13.51171875 1.5978125 -13.51171875 0.9378125 -13.51171875 0.2578125 C-8.73018165 -0.65780099 -4.80999479 -0.64797857 0 0 Z " fill="#386BE2" transform="translate(214.51171875,154.7421875)"/>
<path d="M0 0 C1.2065625 0.433125 1.2065625 0.433125 2.4375 0.875 C5.20511054 1.74898227 7.79253218 2.38036997 10.625 2.9375 C14.06817763 3.6632963 16.39711723 4.51028605 19 7 C18.34 7.66 17.68 8.32 17 9 C14.375 8.625 14.375 8.625 12 8 C12 7.34 12 6.68 12 6 C11.01 6.33 10.02 6.66 9 7 C9 6.34 9 5.68 9 5 C6.36 5 3.72 5 1 5 C0.67 3.35 0.34 1.7 0 0 Z " fill="#3967E4" transform="translate(159,172)"/>
<path d="M0 0 C2.475 0.99 2.475 0.99 5 2 C3.95902388 5.86648272 2.96301592 9.49461443 1 13 C0.34 13 -0.32 13 -1 13 C-1.02686553 11.02090602 -1.04633375 9.04171029 -1.0625 7.0625 C-1.07410156 5.96035156 -1.08570313 4.85820312 -1.09765625 3.72265625 C-1 1 -1 1 0 0 Z " fill="#292284" transform="translate(165,157)"/>
<path d="M0 0 C0.99 0 1.98 0 3 0 C2.6122047 6.4053085 2.18801318 13.28865592 -1 19 C-3.10546875 20.25 -3.10546875 20.25 -5 21 C-5.33 20.01 -5.66 19.02 -6 18 C-5.54625 17.62875 -5.0925 17.2575 -4.625 16.875 C-2.52970606 14.45735315 -1.87986715 12.04569398 -1 9 C-0.34 9 0.32 9 1 9 C0.67 6.03 0.34 3.06 0 0 Z " fill="#A5B777" transform="translate(282,336)"/>
<path d="M0 0 C0.33 0 0.66 0 1 0 C1 10.56 1 21.12 1 32 C0.67 32 0.34 32 0 32 C-0.33 29.03 -0.66 26.06 -1 23 C-1.66 23 -2.32 23 -3 23 C-2.125 18.125 -2.125 18.125 -1 17 C-0.76298761 14.14122091 -0.57780818 11.30116703 -0.4375 8.4375 C-0.39431641 7.63119141 -0.35113281 6.82488281 -0.30664062 5.99414062 C-0.20024738 3.99631195 -0.09959112 1.9981793 0 0 Z " fill="#82E58A" transform="translate(285,288)"/>
<path d="M0 0 C2.9272625 3.80544125 5.84864746 7.69729493 8 12 C7.38125 12.12375 6.7625 12.2475 6.125 12.375 C3.80879168 12.87197356 3.80879168 12.87197356 2 15 C0.68 10.38 -0.64 5.76 -2 1 C-1.34 0.67 -0.68 0.34 0 0 Z " fill="#A8EB69" transform="translate(242,345)"/>
<path d="M0 0 C0.33 0 0.66 0 1 0 C1 11.22 1 22.44 1 34 C-2 31 -2 31 -2.1875 28.3125 C-2.125625 27.549375 -2.06375 26.78625 -2 26 C-1.67 26 -1.34 26 -1 26 C-0.67 17.42 -0.34 8.84 0 0 Z " fill="#46D4A3" transform="translate(239,280)"/>
<path d="M0 0 C1.32 0.33 2.64 0.66 4 1 C4 1.66 4 2.32 4 3 C4.86625 3.3403125 4.86625 3.3403125 5.75 3.6875 C8.62887527 5.36684391 10.17447619 7.22790829 12 10 C11.67 10.99 11.34 11.98 11 13 C10.566875 12.360625 10.13375 11.72125 9.6875 11.0625 C8.08760823 8.73253997 8.08760823 8.73253997 5 8 C5 7.34 5 6.68 5 6 C3.35 5.67 1.7 5.34 0 5 C0 3.35 0 1.7 0 0 Z " fill="#7BDAEF" transform="translate(224,183)"/>
<path d="M0 0 C0.66 0 1.32 0 2 0 C2.66 0.66 3.32 1.32 4 2 C7.08347826 2.16681109 7.08347826 2.16681109 10 2 C9.34 3.32 8.68 4.64 8 6 C4.37 6 0.74 6 -3 6 C-2.01 4.02 -1.02 2.04 0 0 Z " fill="#3F0287" transform="translate(159,138)"/>
<path d="M0 0 C0.33 0.66 0.66 1.32 1 2 C3.01669827 3.13350534 3.01669827 3.13350534 5 4 C2.68462045 7.72114571 0.71420527 10.61229661 -3 13 C-3.66 12.34 -4.32 11.68 -5 11 C-4.01 10.67 -3.02 10.34 -2 10 C-1.855625 9.0925 -1.71125 8.185 -1.5625 7.25 C-1.13590527 4.78523044 -0.64925779 2.41152893 0 0 Z " fill="#728D36" transform="translate(274,349)"/>
<path d="M0 0 C0.66 0 1.32 0 2 0 C3.0625 2.375 3.0625 2.375 4 5 C3.67 5.66 3.34 6.32 3 7 C3.928125 6.7215625 3.928125 6.7215625 4.875 6.4375 C7 6 7 6 9 7 C9 8.32 9 9.64 9 11 C8.01 11.33 7.02 11.66 6 12 C5.01216806 10.92456217 4.03506057 9.83926783 3.0625 8.75 C2.51722656 8.14671875 1.97195312 7.5434375 1.41015625 6.921875 C-0.07209564 4.90174223 -0.66729421 3.4715287 -1 1 C-0.67 0.67 -0.34 0.34 0 0 Z " fill="#4E752C" transform="translate(245,346)"/>
<path d="M0 0 C2.13198121 1.50936723 3.36280969 2.92622561 5 5 C4.67 5.99 4.34 6.98 4 8 C3.319375 6.7934375 3.319375 6.7934375 2.625 5.5625 C1.25274335 2.91143428 1.25274335 2.91143428 -1 2 C-3.37402501 1.92883618 -5.75000677 1.91590915 -8.125 1.9375 C-9.40632813 1.94652344 -10.68765625 1.95554688 -12.0078125 1.96484375 C-12.99523437 1.97644531 -13.98265625 1.98804688 -15 2 C-11.18443318 -3.72335023 -5.81040142 -1.92446416 0 0 Z " fill="#92E1E9" transform="translate(281,178)"/>
<path d="M0 0 C0 0.66 0 1.32 0 2 C-0.99 2 -1.98 2 -3 2 C-3 2.99 -3 3.98 -3 5 C-3.66 5 -4.32 5 -5 5 C-5.33 5.99 -5.66 6.98 -6 8 C-6.33 7.01 -6.66 6.02 -7 5 C-8.65 5.33 -10.3 5.66 -12 6 C-11 3 -11 3 -8.25 1.3125 C-5.14979295 0.06049331 -3.28328088 -0.28970125 0 0 Z " fill="#8962B7" transform="translate(168,133)"/>
<path d="M0 0 C1.05904289 0.00424484 1.05904289 0.00424484 2.13948059 0.00857544 C4.39133758 0.01975786 6.64279477 0.0448583 8.89453125 0.0703125 C10.42252029 0.08034483 11.95051558 0.08947024 13.47851562 0.09765625 C17.22150788 0.11969078 20.96420181 0.15420683 24.70703125 0.1953125 C24.70703125 0.5253125 24.70703125 0.8553125 24.70703125 1.1953125 C23.81395264 1.22036865 22.92087402 1.2454248 22.00073242 1.27124023 C18.68517671 1.36641436 15.36979396 1.46564533 12.05444336 1.56762695 C10.61992122 1.61092043 9.18534941 1.65259949 7.75073242 1.69262695 C5.68783605 1.75046517 3.62518842 1.81412003 1.5625 1.87890625 C-0.29918823 1.93389282 -0.29918823 1.93389282 -2.19848633 1.98999023 C-5.87268733 2.23377746 -7.66466293 2.56700668 -10.29296875 5.1953125 C-10.29296875 4.2053125 -10.29296875 3.2153125 -10.29296875 2.1953125 C-6.69852692 -0.20098205 -4.14435223 -0.06250081 0 0 Z " fill="#AFB3F0" transform="translate(183.29296875,156.8046875)"/>
<path d="M0 0 C1.8125 1.5 1.8125 1.5 3 3 C0.23547967 4.38226016 -2.0461363 4.09525387 -5.125 4.0625 C-6.22070312 4.05347656 -7.31640625 4.04445313 -8.4453125 4.03515625 C-9.70988281 4.01775391 -9.70988281 4.01775391 -11 4 C-7.74971001 0.44015858 -4.80291883 -0.48029188 0 0 Z " fill="#C4FB5D" transform="translate(255,363)"/>
<path d="M0 0 C4.04152406 0.23316485 6.33802764 0.4228959 9.4375 3.125 C11.34690605 6.63830712 11.30912975 9.05859564 11 13 C9.4375 11.8125 9.4375 11.8125 8 10 C8.3125 7.3125 8.3125 7.3125 9 5 C4.545 4.01 4.545 4.01 0 3 C0 2.01 0 1.02 0 0 Z " fill="#0FBDCF" transform="translate(344,132)"/>
<path d="M0 0 C0 0.99 0 1.98 0 3 C1.65 3.33 3.3 3.66 5 4 C5 4.33 5 4.66 5 5 C3.56208484 4.85831863 2.1246763 4.71148957 0.6875 4.5625 C-0.11300781 4.48128906 -0.91351563 4.40007812 -1.73828125 4.31640625 C-4 4 -4 4 -7 3 C-6.67 2.01 -6.34 1.02 -6 0 C-3.50907189 -1.24546405 -2.58919267 -0.7767578 0 0 Z " fill="#0BB8DA" transform="translate(222,201)"/>
<path d="M0 0 C2.96175123 0.61277612 4.38058783 1.25372522 7 3 C7.66 3 8.32 3 9 3 C9.12375 3.804375 9.2475 4.60875 9.375 5.4375 C9.58125 6.283125 9.7875 7.12875 10 8 C10.66 8.33 11.32 8.66 12 9 C8.61638481 8.38271885 6.47997439 7.13020282 3.75 5.0625 C3.04359375 4.53785156 2.3371875 4.01320312 1.609375 3.47265625 C1.07828125 2.98667969 0.5471875 2.50070313 0 2 C0 1.34 0 0.68 0 0 Z " fill="#99B8E9" transform="translate(152,192)"/>
<path d="M0 0 C3 1 3 1 3.9375 2.8125 C4 5 4 5 2.0625 7.25 C1.381875 7.8275 0.70125 8.405 0 9 C-0.66 8.67 -1.32 8.34 -2 8 C-1.125 1.125 -1.125 1.125 0 0 Z " fill="#444DF0" transform="translate(149,176)"/>
<path d="M0 0 C3.875 4.75 3.875 4.75 5 7 C3.58194169 6.71517632 2.16559621 6.42181856 0.75 6.125 C-0.03890625 5.96257812 -0.8278125 5.80015625 -1.640625 5.6328125 C-3.96831144 5.00849925 -5.89031952 4.15161458 -8 3 C-8 2.67 -8 2.34 -8 2 C-5.36 2 -2.72 2 0 2 C0 1.34 0 0.68 0 0 Z " fill="#29378F" transform="translate(169,170)"/>
<path d="M0 0 C-0.33 1.32 -0.66 2.64 -1 4 C-0.34 4.33 0.32 4.66 1 5 C-0.10868317 7.21736634 -1.49440461 9.03617993 -3 11 C-3.268125 10.360625 -3.53625 9.72125 -3.8125 9.0625 C-4.88667752 6.66868314 -4.88667752 6.66868314 -8 6 C-7.0479279 4.99403703 -6.08812654 3.99538437 -5.125 3 C-4.59132812 2.443125 -4.05765625 1.88625 -3.5078125 1.3125 C-2 0 -2 0 0 0 Z " fill="#3B0F77" transform="translate(158,139)"/>
<path d="M0 0 C0.66 0 1.32 0 2 0 C2 0.99 2 1.98 2 3 C2.66 3.33 3.32 3.66 4 4 C3.34 5.65 2.68 7.3 2 9 C1.34 9 0.68 9 0 9 C-0.33 7.68 -0.66 6.36 -1 5 C-1.99 5 -2.98 5 -4 5 C-4 4.34 -4 3.68 -4 3 C-2.68 3 -1.36 3 0 3 C0 2.01 0 1.02 0 0 Z " fill="#28136A" transform="translate(156,157)"/>
<path d="M0 0 C3.71599191 -0.20086443 4.77208445 -0.1519437 8 2 C8 2.66 8 3.32 8 4 C9.32 4.66 10.64 5.32 12 6 C7.83783725 6.32644414 5.63686538 6.40650982 2.0625 4.125 C0 2 0 2 0 0 Z " fill="#B6F584" transform="translate(228,360)"/>
<path d="M0 0 C1.95803507 -0.05389087 3.91648909 -0.09274217 5.875 -0.125 C7.51082031 -0.15980469 7.51082031 -0.15980469 9.1796875 -0.1953125 C12 0 12 0 14 2 C12.25895647 3.74104353 9.92635979 3.21311272 7.5625 3.25 C6.57378906 3.27578125 5.58507812 3.3015625 4.56640625 3.328125 C3.71949219 3.21984375 2.87257813 3.1115625 2 3 C1.34 2.01 0.68 1.02 0 0 Z " fill="#566E21" transform="translate(257,360)"/>
<path d="M0 0 C2 1.8125 2 1.8125 4 4 C4 4.99 4 5.98 4 7 C4.61875 7.268125 5.2375 7.53625 5.875 7.8125 C8 9 8 9 10 12 C7.69 11.34 5.38 10.68 3 10 C2.896875 9.360625 2.79375 8.72125 2.6875 8.0625 C2.460625 7.381875 2.23375 6.70125 2 6 C1.01 5.67 0.02 5.34 -1 5 C-0.67 3.35 -0.34 1.7 0 0 Z " fill="#5030DA" transform="translate(150,160)"/>
<path d="M0 0 C0.99 0.33 1.98 0.66 3 1 C2.67 3.31 2.34 5.62 2 8 C1.34 8 0.68 8 0 8 C-0.33 9.98 -0.66 11.96 -1 14 C-1.33 14 -1.66 14 -2 14 C-2.05389087 12.04196493 -2.09274217 10.08351091 -2.125 8.125 C-2.14820313 7.03445312 -2.17140625 5.94390625 -2.1953125 4.8203125 C-2 2 -2 2 0 0 Z " fill="#7269AE" transform="translate(171,156)"/>
<path d="M0 0 C0.33 0 0.66 0 1 0 C1.33 5.28 1.66 10.56 2 16 C2.99 16.33 3.98 16.66 5 17 C4.67 18.65 4.34 20.3 4 22 C0.46831335 18.46831335 0.05481684 14.46977647 -0.125 9.6484375 C-0.125 6.42984881 -0.08708562 3.21732974 0 0 Z " fill="#604CD8" transform="translate(143,160)"/>
<path d="M0 0 C5.28 0 10.56 0 16 0 C16 0.33 16 0.66 16 1 C13.89627599 1.33611568 11.79200343 1.66879946 9.6875 2 C7.92986328 2.2784375 7.92986328 2.2784375 6.13671875 2.5625 C3 3 3 3 0 3 C0 2.01 0 1.02 0 0 Z " fill="#5626E2" transform="translate(192,132)"/>
<path d="M0 0 C3 1 3 1 4.6875 4.0625 C5.120625 5.031875 5.55375 6.00125 6 7 C4.02 7.99 4.02 7.99 2 9 C0.14223235 5.86501708 -0.20140476 3.62528568 0 0 Z " fill="#599749" transform="translate(241,339)"/>
<path d="M0 0 C0 1.98 0 3.96 0 6 C-2 6 -2 6 -4.125 4.125 C-6 2 -6 2 -6 0 C-3.50907189 -1.24546405 -2.58919267 -0.7767578 0 0 Z " fill="#05C3D4" transform="translate(285,186)"/>
<path d="M0 0 C0.33 0.66 0.66 1.32 1 2 C3.97 2 6.94 2 10 2 C10 2.66 10 3.32 10 4 C8.37509046 4.02698189 6.75005367 4.04638757 5.125 4.0625 C3.76761719 4.07990234 3.76761719 4.07990234 2.3828125 4.09765625 C0 4 0 4 -2 3 C-2 2.34 -2 1.68 -2 1 C-1.34 0.67 -0.68 0.34 0 0 Z " fill="#3D48C6" transform="translate(191,153)"/>
<path d="M0 0 C5.28 0 10.56 0 16 0 C16 0.66 16 1.32 16 2 C15.18015625 1.98839844 14.3603125 1.97679687 13.515625 1.96484375 C12.43796875 1.95582031 11.3603125 1.94679687 10.25 1.9375 C9.18265625 1.92589844 8.1153125 1.91429687 7.015625 1.90234375 C4.46631499 1.98489913 2.42066409 2.25382442 0 3 C0 2.01 0 1.02 0 0 Z " fill="#4054F6" transform="translate(224,133)"/>
<path d="M0 0 C0.66 0 1.32 0 2 0 C2 0.99 2 1.98 2 3 C3.65 2.67 5.3 2.34 7 2 C7 2.99 7 3.98 7 5 C4 7 4 7 2 8 C1.34 5.36 0.68 2.72 0 0 Z " fill="#99EF76" transform="translate(224,352)"/>
<path d="M0 0 C0.99 0.495 0.99 0.495 2 1 C1.95875 1.94875 1.9175 2.8975 1.875 3.875 C1.65026182 7.10244856 1.65026182 7.10244856 4 9 C2.68 10.65 1.36 12.3 0 14 C0 9.38 0 4.76 0 0 Z " fill="#82CC79" transform="translate(260,320)"/>
<path d="M0 0 C1.98362069 2.91708924 1.9876191 4.12380904 1.625 7.75 C1.41875 8.8225 1.2125 9.895 1 11 C-1.4375 10.625 -1.4375 10.625 -4 10 C-4.33 9.34 -4.66 8.68 -5 8 C-3.35 8 -1.7 8 0 8 C0 5.36 0 2.72 0 0 Z " fill="#11BCCE" transform="translate(237,202)"/>
<path d="M0 0 C2.31 0 4.62 0 7 0 C7 0.66 7 1.32 7 2 C7.639375 2.28875 8.27875 2.5775 8.9375 2.875 C11 4 11 4 12 6 C7.69599203 4.32621912 3.84677678 2.56451785 0 0 Z " fill="#04778A" transform="translate(221,206)"/>
<path d="M0 0 C4 1.33333333 8 2.66666667 12 4 C12 4.33 12 4.66 12 5 C8.37 5 4.74 5 1 5 C0.67 3.35 0.34 1.7 0 0 Z " fill="#4252E5" transform="translate(159,172)"/>
<path d="M0 0 C2.475 0.99 2.475 0.99 5 2 C3 5 3 5 0 6 C-0.38218767 4.34385343 -0.71395102 2.67542976 -1 1 C-0.67 0.67 -0.34 0.34 0 0 Z " fill="#2F1D8C" transform="translate(165,157)"/>
<path d="M0 0 C0.33 0 0.66 0 1 0 C1.05399736 1.45792884 1.09279177 2.91642712 1.125 4.375 C1.14820313 5.18710937 1.17140625 5.99921875 1.1953125 6.8359375 C1 9 1 9 -1 11 C-1 10.34 -1 9.68 -1 9 C-1.66 8.67 -2.32 8.34 -3 8 C-2.01 5.36 -1.02 2.72 0 0 Z " fill="#27DA9E" transform="translate(284,265)"/>
<path d="M0 0 C0.66 0 1.32 0 2 0 C3.125 2.3125 3.125 2.3125 4 5 C3.01 6.485 3.01 6.485 2 8 C0.4375 5.6875 0.4375 5.6875 -1 3 C-0.67 2.01 -0.34 1.02 0 0 Z " fill="#538133" transform="translate(245,346)"/>
<path d="M0 0 C3.48670834 1.1094072 6.77484237 2.26337666 10 4 C9.67 4.99 9.34 5.98 9 7 C8.34 7 7.68 7 7 7 C7 6.01 7 5.02 7 4 C4.69 3.34 2.38 2.68 0 2 C0 1.34 0 0.68 0 0 Z " fill="#2BAEDE" transform="translate(214,179)"/>
<path d="M0 0 C0.33 0 0.66 0 1 0 C0.67 2.97 0.34 5.94 0 9 C-0.99 9 -1.98 9 -3 9 C-2.01 6.03 -1.02 3.06 0 0 Z " fill="#6E26DE" transform="translate(147,150)"/>
<path d="M0 0 C1.98 0 3.96 0 6 0 C5.34 1.32 4.68 2.64 4 4 C2.68 3.67 1.36 3.34 0 3 C0 2.01 0 1.02 0 0 Z M-2 3 C0 4 0 4 0 4 Z " fill="#440899" transform="translate(163,140)"/>
<path d="M0 0 C0.99 0 1.98 0 3 0 C2.6875 2.375 2.6875 2.375 2 5 C1.01 5.66 0.02 6.32 -1 7 C-1.66 6.34 -2.32 5.68 -3 5 C-2.01 4.67 -1.02 4.34 0 4 C0 2.68 0 1.36 0 0 Z " fill="#677A35" transform="translate(272,355)"/>
<path d="M0 0 C2.64 0 5.28 0 8 0 C5.60490662 2.89932357 3.68754757 3.50168276 0 4 C0 2.68 0 1.36 0 0 Z " fill="#2B7BF6" transform="translate(255,133)"/>
<path d="M0 0 C0.99 1.32 1.98 2.64 3 4 C2.34 5.32 1.68 6.64 1 8 C0.01 5.69 -0.98 3.38 -2 1 C-1.34 0.67 -0.68 0.34 0 0 Z " fill="#99E374" transform="translate(242,345)"/>
<path d="M0 0 C0.1875 2.375 0.1875 2.375 0 5 C-0.99 5.66 -1.98 6.32 -3 7 C-3.33 5.35 -3.66 3.7 -4 2 C-1 0 -1 0 0 0 Z " fill="#76EA7E" transform="translate(222,343)"/>
<path d="M0 0 C0.99 0 1.98 0 3 0 C3 1.98 3 3.96 3 6 C2.34 6 1.68 6 1 6 C0.67 6.66 0.34 7.32 0 8 C0 5.36 0 2.72 0 0 Z " fill="#3CDD9C" transform="translate(282,274)"/>
<path d="M0 0 C1.32 0 2.64 0 4 0 C4 0.66 4 1.32 4 2 C4.66 2.33 5.32 2.66 6 3 C3.625 3.625 3.625 3.625 1 4 C0.34 3.34 -0.32 2.68 -1 2 C-0.67 1.34 -0.34 0.68 0 0 Z " fill="#348FE2" transform="translate(163,197)"/>
<path d="M0 0 C2 3 2 3 3 6 C2.01 6.33 1.02 6.66 0 7 C-0.66 6.34 -1.32 5.68 -2 5 C-2 4.01 -2 3.02 -2 2 C-1.34 2 -0.68 2 0 2 C0 1.34 0 0.68 0 0 Z " fill="#2D71F3" transform="translate(158,189)"/>
<path d="M0 0 C0.66 0.99 1.32 1.98 2 3 C-1 5 -1 5 -3.6875 4.625 C-4.450625 4.41875 -5.21375 4.2125 -6 4 C-5.38125 3.71125 -4.7625 3.4225 -4.125 3.125 C-1.86674235 2.06279958 -1.86674235 2.06279958 0 0 Z " fill="#6F9B50" transform="translate(259,339)"/>
<path d="M0 0 C0.99 0 1.98 0 3 0 C2.67 3.3 2.34 6.6 2 10 C1.67 10 1.34 10 1 10 C0.67 6.7 0.34 3.4 0 0 Z " fill="#92BF58" transform="translate(282,336)"/>
<path d="M0 0 C0.66 0.33 1.32 0.66 2 1 C2 2.32 2 3.64 2 5 C1.01 5.33 0.02 5.66 -1 6 C-1.99 5.01 -2.98 4.02 -4 3 C-3.01 2.34 -2.02 1.68 -1 1 C-0.67 0.67 -0.34 0.34 0 0 Z " fill="#09BBD5" transform="translate(232,204)"/>
<path d="M0 0 C0.66 0 1.32 0 2 0 C2.12375 0.804375 2.2475 1.60875 2.375 2.4375 C2.684375 3.7059375 2.684375 3.7059375 3 5 C3.66 5.33 4.32 5.66 5 6 C1.73045798 5.43628586 0.17424117 4.50037734 -2 2 C-1.34 2 -0.68 2 0 2 C0 1.34 0 0.68 0 0 Z " fill="#92C1F4" transform="translate(159,195)"/>
<path d="M0 0 C0.99 0.66 1.98 1.32 3 2 C1.68 3.32 0.36 4.64 -1 6 C-1.625 4.125 -1.625 4.125 -2 2 C-1.34 1.34 -0.68 0.68 0 0 Z " fill="#04C0E0" transform="translate(265,182)"/>
</svg>
